<svg width="648" height="489" viewBox="0 0 648 489" fill="none" xmlns="http://www.w3.org/2000/svg">
<g opacity="0.5">
<path opacity="0.43" d="M232.751 287.181V231.93L195.262 272.878V341H171.118V243.386H164.985L147.488 227.039L129.895 243.386H123.843V375.11H34.9746V446.868H291.341V287.181H232.751ZM164.969 322.208H129.991V318.62H164.969V322.208ZM164.969 315.08H129.991V311.508H164.969V315.08ZM164.969 307.953H129.991V304.397H164.969V307.953ZM164.969 300.825H129.991V297.269H164.969V300.825ZM164.969 293.713H129.991V290.142H164.969V293.713ZM164.969 286.586H129.991V283.014H164.969V286.586ZM164.969 279.458H129.991V275.886H164.969V279.458ZM164.969 272.331H129.991V268.743H164.969V272.331ZM164.969 265.203H129.991V261.631H164.969V265.203ZM164.969 258.075H129.991V254.504H164.969V258.075ZM164.969 250.948H129.991V247.392H164.969V250.948ZM228.002 424.536H224.364V249.162L228.002 245.188V424.536Z" fill="#DDD6FF"/>
<path opacity="0.43" d="M497.518 287.181V231.93L460.03 272.878V341H435.885V243.386H429.769L412.272 227.039L394.695 243.386H388.642V375.11H299.742V446.868H556.093V287.181H497.518ZM429.769 322.208H394.759V318.62H429.769V322.208ZM429.769 315.08H394.759V311.508H429.769V315.08ZM429.769 307.953H394.759V304.397H429.769V307.953ZM429.769 300.825H394.759V297.269H429.769V300.825ZM429.769 293.713H394.759V290.142H429.769V293.713ZM429.769 286.586H394.759V283.014H429.769V286.586ZM429.769 279.458H394.759V275.886H429.769V279.458ZM429.769 272.331H394.759V268.743H429.769V272.331ZM429.769 265.203H394.759V261.631H429.769V265.203ZM429.769 258.075H394.759V254.504H429.769V258.075ZM429.769 250.948H394.759V247.392H429.769V250.948ZM492.802 424.536H489.164V249.162L492.802 245.188V424.536Z" fill="#DDD6FF"/>
<path d="M401.845 380.016V255.114H396.211V242.484H352.654V255.114H347.053V412.13H306.184V341.015H246.627V434.334H217.912V267.133H159.353V395.542H152.48V319.166H141.872L112.303 303.559V319.166H105.865V413.546H91.3942V285.716H76.9074V240.875H74.8793V285.716H60.3926V447.141H438.528V380.016H401.845ZM87.9656 367.869H63.9338V365.085H87.9013L87.9656 367.869ZM87.9656 361.433H63.9338V358.665H87.9013L87.9656 361.433ZM87.9656 354.997H63.9338V352.23H87.9013L87.9656 354.997ZM87.9656 348.561H63.9338V345.778H87.9013L87.9656 348.561ZM87.9656 342.125H63.9338V339.374H87.9013L87.9656 342.125ZM87.9656 335.69H63.9338V332.906H87.9013L87.9656 335.69ZM87.9656 329.254H63.9338V326.503H87.9013L87.9656 329.254ZM87.9656 322.818H63.9338V320.067H87.9013L87.9656 322.818ZM87.9656 316.382H63.9338V313.631H87.9013L87.9656 316.382ZM87.9656 309.947H63.9338V307.179H87.9013L87.9656 309.947ZM87.9656 303.511H63.9338V300.728H87.9013L87.9656 303.511ZM87.9656 297.075H63.9338V294.292H87.9013L87.9656 297.075ZM87.9656 290.639H63.9338V287.856H87.9013L87.9656 290.639ZM171.973 328.916H164.826V321.837H171.973V328.916ZM171.973 317.042H164.826V309.915H171.973V317.042ZM171.973 305.152H164.826V298.041H171.973V305.152ZM171.973 293.278H164.826V286.151H171.973V293.278ZM171.973 281.388H164.826V274.26H171.973V281.388ZM185.51 328.916H178.395V321.837H185.51V328.916ZM185.51 317.042H178.395V309.915H185.51V317.042ZM185.51 305.152H178.395V298.041H185.51V305.152ZM185.51 293.278H178.395V286.151H185.51V293.278ZM185.51 281.388H178.395V274.26H185.51V281.388ZM199.063 328.916H191.868V321.837H198.998L199.063 328.916ZM199.063 317.042H191.868V309.915H198.998L199.063 317.042ZM199.063 305.152H191.868V298.041H198.998L199.063 305.152ZM199.063 293.278H191.868V286.151H198.998L199.063 293.278ZM199.063 281.388H191.868V274.26H198.998L199.063 281.388ZM212.616 328.916H205.485V321.837H212.616V328.916ZM212.616 317.042H205.485V309.915H212.616V317.042ZM212.616 305.152H205.485V298.041H212.616V305.152ZM212.616 293.278H205.485V286.151H212.616V293.278ZM407.527 438.742H400.106V431.325H407.527V438.742ZM407.527 423.908H400.106V416.491H407.527V423.908ZM407.527 409.073H400.106V401.656H407.527V409.073ZM407.527 394.223H400.106V386.822H407.527V394.223ZM421.273 438.742H413.868V431.325H421.273V438.742ZM421.273 423.908H413.868V416.491H421.273V423.908ZM421.273 409.073H413.868V401.656H421.273V409.073ZM421.273 394.223H413.868V386.822H421.273V394.223ZM435.035 438.742H427.599V431.325H435.035V438.742ZM435.035 423.908H427.599V416.491H435.035V423.908ZM435.035 409.073H427.599V401.656H435.035V409.073ZM435.035 394.223H427.599V386.822H435.035V394.223Z" fill="#DDD6FF"/>
<path d="M575.765 366.742V255.114H570.147V242.484H526.591V255.114H520.989V412.13H480.12V341.015H420.564V434.334H391.832V267.133H333.193V395.542H326.304V319.166H315.696L286.127 303.559V319.166H279.689V413.546H265.331V285.716H250.844V240.875H248.848V285.716H234.361V447.141H612.449V366.694L575.765 366.742ZM261.886 367.869H237.87V365.085H261.822L261.886 367.869ZM261.886 361.433H237.87V358.665H261.822L261.886 361.433ZM261.886 354.997H237.87V352.23H261.822L261.886 354.997ZM261.886 348.561H237.87V345.778H261.822L261.886 348.561ZM261.886 342.125H237.87V339.374H261.822L261.886 342.125ZM261.886 335.69H237.87V332.906H261.822L261.886 335.69ZM261.886 329.254H237.87V326.503H261.822L261.886 329.254ZM261.886 322.818H237.87V320.067H261.822L261.886 322.818ZM261.886 316.382H237.87V313.631H261.822L261.886 316.382ZM261.886 309.947H237.87V307.179H261.822L261.886 309.947ZM261.886 303.511H237.87V300.728H261.822L261.886 303.511ZM261.886 297.075H237.87V294.292H261.822L261.886 297.075ZM261.886 290.639H237.87V287.856H261.822L261.886 290.639ZM345.893 328.916H338.762V321.837H345.893V328.916ZM345.893 317.042H338.762V309.915H345.893V317.042ZM345.893 305.152H338.762V298.041H345.893V305.152ZM345.893 293.278H338.762V286.151H345.893V293.278ZM345.893 281.388H338.762V274.26H345.893V281.388ZM359.446 328.916H352.315V321.837H359.446V328.916ZM359.446 317.042H352.315V309.915H359.446V317.042ZM359.446 305.152H352.315V298.041H359.446V305.152ZM359.446 293.278H352.315V286.151H359.446V293.278ZM359.446 281.388H352.315V274.26H359.446V281.388ZM372.999 328.916H365.868V321.837H372.999V328.916ZM372.999 317.042H365.868V309.915H372.999V317.042ZM372.999 305.152H365.868V298.041H372.999V305.152ZM372.999 293.278H365.868V286.151H372.999V293.278ZM372.999 281.388H365.868V274.26H372.999V281.388ZM386.552 328.916H379.422V321.837H386.552V328.916ZM386.552 317.042H379.422V309.915H386.552V317.042ZM386.552 305.152H379.422V298.041H386.552V305.152ZM386.552 293.278H379.422V286.151H386.552V293.278ZM585.214 419.065H578.775V412.629H585.214V419.065ZM585.214 406.193H578.775V399.758H585.214V406.193ZM585.214 393.322H578.775V386.886H585.214V393.322ZM585.214 380.45H578.775V374.015H585.214V380.45ZM597.077 418.872H590.638V412.436H597.077V418.872ZM597.077 406H590.638V399.565H597.077V406ZM597.077 393.129H590.638V386.693H597.077V393.129ZM597.077 380.257H590.638V373.822H597.077V380.257ZM608.956 418.679H602.517V412.243H608.956V418.679ZM608.956 405.807H602.517V399.372H608.956V405.807ZM608.956 392.936H602.517V386.5H608.956V392.936ZM608.956 380.064H602.517V373.629H608.956V380.064Z" fill="#DDD6FF"/>
<path opacity="0.43" d="M637.849 390.571H612.449V447.142H637.849V390.571Z" fill="#DDD6FF"/>
<path d="M671.619 447.56H1.20575C1.00511 447.56 0.812679 447.481 0.670803 447.339C0.528926 447.197 0.449219 447.005 0.449219 446.804C0.449219 446.603 0.528926 446.411 0.670803 446.269C0.812679 446.127 1.00511 446.048 1.20575 446.048H671.619C671.819 446.048 672.012 446.127 672.154 446.269C672.296 446.411 672.375 446.603 672.375 446.804C672.375 447.005 672.296 447.197 672.154 447.339C672.012 447.481 671.819 447.56 671.619 447.56Z" fill="#BFB8F4"/>
</g>
<path d="M173.406 400.224C170.734 395.929 167.981 391.44 167.547 386.404C167.128 381.738 166.372 376.589 167.08 371.923C167.736 367.274 167.518 362.543 166.436 357.974C163.217 343.638 157.213 345.231 155.024 346.325C152.835 347.419 151.805 349.752 151.805 353.549C151.724 356.59 153.929 370.829 149.261 368.754C143.885 366.34 143.966 351.458 143.08 346.502C141.777 339.085 138.686 331.185 132.972 326.069C130.155 323.542 126.018 321.708 122.638 323.398C120.662 324.549 119.213 326.425 118.598 328.627C116.457 335.062 118.727 341.788 121.302 347.757C122.38 350.251 131.072 361.787 123.958 360.709C122.252 360.452 108.006 349.446 106.703 360.966C106.236 365.021 110.807 369.14 117.97 374.272C122.477 377.49 139.169 385.841 138.364 390.362C137.559 394.883 128.288 387.755 129.447 396.09C130.091 400.755 136.256 404.134 140.424 405.743C142.42 406.58 144.561 406.998 146.493 407.947C148.778 409.074 151.595 411.841 149.873 414.544C149.116 415.735 147.652 416.33 146.943 417.553C146.623 418.192 146.48 418.904 146.528 419.617C146.576 420.33 146.814 421.017 147.217 421.607C148.061 422.775 149.162 423.733 150.436 424.407C158.259 429.121 168.03 429.829 176.979 427.995C185.929 426.161 194.235 421.961 202.154 417.392" fill="#D6D4FF"/>
<g opacity="0.25">
<path d="M127.16 331.186C127.16 331.186 136.931 379.936 166.789 410.152" stroke="white" stroke-width="0.7" stroke-linecap="round" stroke-linejoin="round"/>
<path d="M113.783 363.478C113.783 363.478 130.443 376.269 144.077 377.958" stroke="white" stroke-width="0.7" stroke-linecap="round" stroke-linejoin="round"/>
<path d="M157.565 352.408C158.499 360.083 159.336 381.498 152.141 391.892" stroke="white" stroke-width="0.7" stroke-linecap="round" stroke-linejoin="round"/>
<path d="M135.576 397.65C135.576 397.65 142.111 403.217 162.264 405.341" stroke="white" stroke-width="0.7" stroke-linecap="round" stroke-linejoin="round"/>
<path d="M150.918 418.922C157.683 419.796 164.549 418.476 170.507 415.157" stroke="white" stroke-width="0.7" stroke-linecap="round" stroke-linejoin="round"/>
</g>
<path d="M247.239 368.304C244.567 364.008 241.814 359.503 241.379 354.483C240.961 349.817 240.204 344.668 240.913 340.002C241.561 335.353 241.342 330.623 240.269 326.053C237.05 311.717 231.029 313.31 228.84 314.404C226.651 315.498 225.621 317.831 225.621 321.628C225.525 324.669 227.73 338.908 223.078 336.833C217.686 334.419 217.766 319.537 216.897 314.581C215.577 307.164 212.486 299.264 206.772 294.148C203.955 291.622 199.835 289.787 196.455 291.477C194.474 292.623 193.023 294.501 192.414 296.706C190.257 303.142 192.543 309.867 195.119 315.836C196.197 318.33 204.889 329.85 197.758 328.708C196.068 328.45 181.823 317.445 180.519 328.965C180.052 333.003 184.608 337.138 191.787 342.271C196.31 345.489 212.985 353.839 212.181 358.36C211.376 362.881 202.12 355.754 203.263 364.088C203.907 368.754 210.072 372.133 214.257 373.742C216.237 374.562 218.394 374.997 220.309 375.946C222.611 377.072 225.412 379.824 223.69 382.543C222.949 383.733 221.468 384.329 220.76 385.535C220.437 386.177 220.294 386.894 220.345 387.61C220.396 388.327 220.639 389.016 221.05 389.606C221.893 390.775 222.994 391.733 224.269 392.405C232.108 397.12 241.878 397.828 250.828 395.977C259.778 394.127 268.067 389.96 275.987 385.391" fill="#D6D4FF"/>
<g opacity="0.25">
<path d="M200.896 299.312C200.896 299.312 210.683 348.062 240.542 378.278" stroke="white" stroke-width="0.7" stroke-linecap="round" stroke-linejoin="round"/>
<path d="M187.617 331.49C187.617 331.49 204.261 344.281 217.894 345.971" stroke="white" stroke-width="0.7" stroke-linecap="round" stroke-linejoin="round"/>
<path d="M231.4 320.501C232.317 328.176 233.154 349.591 225.959 359.984" stroke="white" stroke-width="0.7" stroke-linecap="round" stroke-linejoin="round"/>
<path d="M209.395 365.729C209.395 365.729 215.946 371.295 236.082 373.419" stroke="white" stroke-width="0.7" stroke-linecap="round" stroke-linejoin="round"/>
<path d="M224.738 386.999C231.506 387.881 238.379 386.567 244.344 383.25" stroke="white" stroke-width="0.7" stroke-linecap="round" stroke-linejoin="round"/>
</g>
<path d="M178.089 398.294C177.059 392.485 166.322 355.882 147.506 365.6C136.319 371.376 138.331 392.63 155.795 408.687C152.367 405.373 148.407 401.624 143.723 400.643C142.372 400.47 141 400.596 139.703 401.013C138.407 401.43 137.218 402.128 136.222 403.056C134.664 404.771 133.848 407.033 133.952 409.347C133.861 413.529 134.826 417.666 136.759 421.376C138.692 425.085 141.53 428.247 145.011 430.569C141.148 428.413 137.8 425.742 133.389 425.324C132.532 425.274 131.676 425.427 130.89 425.771C130.104 426.115 129.41 426.64 128.866 427.303C128.142 428.687 128.19 433.9 136.705 437.777C102.033 431.213 100.005 445.983 112.464 445.983H214.676" fill="#BFB8F4"/>
<path d="M498.984 398.294C500.014 392.485 510.751 355.882 529.567 365.6C540.835 371.376 538.742 392.63 521.278 408.687C524.706 405.373 528.666 401.624 533.35 400.643C534.703 400.471 536.078 400.598 537.377 401.015C538.676 401.432 539.867 402.129 540.867 403.056C542.413 404.777 543.222 407.036 543.121 409.347C543.212 413.529 542.247 417.666 540.314 421.376C538.381 425.085 535.543 428.247 532.062 430.569C535.925 428.413 539.273 425.742 543.684 425.324C544.54 425.274 545.397 425.427 546.183 425.771C546.969 426.115 547.663 426.64 548.207 427.303C548.931 428.687 548.883 433.9 540.384 437.777C575.056 431.213 577.068 445.983 564.609 445.983H482.18" fill="#BFB8F4"/>
<path d="M491.775 382.365C493.948 377.812 496.186 373.033 496.057 367.981C495.944 363.299 496.057 358.102 494.898 353.581C493.728 349.034 493.411 344.31 493.964 339.648C495.574 325.038 501.723 325.94 504.025 326.776C506.326 327.613 507.55 329.833 508.065 333.582C508.499 336.607 507.904 351.007 512.298 348.416C517.385 345.408 515.63 330.621 515.952 325.602C516.419 318.104 518.608 309.898 523.71 304.171C526.221 301.355 530.149 299.07 533.674 300.357C535.781 301.303 537.433 303.036 538.278 305.184C541.143 311.362 539.614 318.265 537.73 324.491C536.942 327.082 529.586 339.519 536.539 337.653C538.149 337.202 551.139 324.685 553.714 335.963C554.632 339.953 550.495 344.555 543.944 350.444C539.823 354.144 524.177 364.297 525.481 368.673C526.785 373.049 535.139 364.956 534.994 373.371C534.865 378.069 529.119 382.059 525.159 384.263C523.276 385.293 521.199 385.969 519.381 387.127C517.24 388.495 514.761 391.552 516.773 394.062C517.642 395.156 519.171 395.59 519.992 396.701C520.383 397.301 520.606 397.996 520.637 398.712C520.668 399.428 520.507 400.139 520.169 400.771C519.481 402.018 518.511 403.086 517.336 403.893C510.093 409.459 500.467 411.261 491.357 410.425C482.246 409.588 473.538 406.37 465.168 402.718" fill="#D6D4FF"/>
<g opacity="0.25">
<path d="M530.085 308.596C530.085 308.596 525.836 358.135 499.502 391.504" stroke="white" stroke-width="0.7" stroke-linecap="round" stroke-linejoin="round"/>
<path d="M546.906 339.182C546.906 339.182 531.791 353.759 518.447 357.041" stroke="white" stroke-width="0.7" stroke-linecap="round" stroke-linejoin="round"/>
<path d="M502.205 333.101C502.205 340.84 503.718 362.206 512.024 371.715" stroke="white" stroke-width="0.7" stroke-linecap="round" stroke-linejoin="round"/>
<path d="M529.087 375.575C529.087 375.575 523.132 381.85 503.43 386.194" stroke="white" stroke-width="0.7" stroke-linecap="round" stroke-linejoin="round"/>
<path d="M516.225 398.438C509.601 400.074 502.626 399.539 496.33 396.909" stroke="white" stroke-width="0.7" stroke-linecap="round" stroke-linejoin="round"/>
</g>
<path d="M230.563 421.979H221.822V446H230.563V421.979Z" fill="#581E96"/>
<path d="M455.234 421.979H446.494V446H455.234V421.979Z" fill="#581E96"/>
<path d="M236.262 358.183H170.09V445.999H236.262V358.183Z" fill="#9D74ED"/>
<path d="M236.259 345.972H167.512V360.259H236.259V345.972Z" fill="#581E96"/>
<path d="M236.259 442.895H167.512V446H236.259V442.895Z" fill="#581E96"/>
<path d="M221.643 388.27V416.298H184.139V388.27C184.14 383.482 185.975 378.876 189.268 375.399C192.561 371.922 197.062 369.837 201.845 369.574H202.875H203.889C208.672 369.837 213.172 371.922 216.465 375.399C219.758 378.876 221.594 383.482 221.595 388.27H221.643Z" fill="#DDD6FF"/>
<path d="M219.587 414.32H186.203V388.191C186.203 383.765 187.962 379.522 191.092 376.393C194.222 373.264 198.468 371.506 202.895 371.506C207.322 371.506 211.568 373.264 214.698 376.393C217.828 379.522 219.587 383.765 219.587 388.191V414.32Z" fill="#C3BDEF"/>
<path d="M222.724 416.299H183.047V418.374H222.724V416.299Z" fill="white"/>
<path d="M223.929 418.31H181.854V420.385H223.929V418.31Z" fill="white"/>
<path d="M223.929 420.385H181.854V421.881H223.929V420.385Z" fill="#6F3FBC"/>
<path d="M221.627 387.644H184.139V389.687H221.627V387.644Z" fill="white"/>
<path d="M203.909 369.574V416.233H201.865V369.574H202.895H203.909Z" fill="white"/>
<path d="M440.765 445.999H506.938V358.183H440.765V445.999Z" fill="#9D74ED"/>
<path d="M440.764 360.26H509.512V345.972H440.764V360.26Z" fill="#581E96"/>
<path d="M440.764 445.968H509.512V443.651H440.764V445.968Z" fill="#581E96"/>
<path d="M492.546 388.27V416.298H455.041V388.27C455.042 383.482 456.878 378.876 460.171 375.399C463.464 371.922 467.964 369.837 472.747 369.574H473.777H474.791C479.574 369.837 484.074 371.922 487.368 375.399C490.661 378.876 492.496 383.482 492.497 388.27H492.546Z" fill="#DDD6FF"/>
<path d="M490.537 414.32H457.137V388.191C457.137 383.765 458.895 379.522 462.026 376.393C465.156 373.264 469.402 371.506 473.829 371.506C476.021 371.506 478.191 371.937 480.216 372.776C482.242 373.614 484.082 374.843 485.632 376.393C487.182 377.942 488.411 379.781 489.25 381.806C490.089 383.83 490.521 385.999 490.521 388.191L490.537 414.32Z" fill="#C3BDEF"/>
<path d="M493.674 416.299H453.996V418.374H493.674V416.299Z" fill="white"/>
<path d="M494.879 418.31H452.803V420.385H494.879V418.31Z" fill="white"/>
<path d="M494.879 420.385H452.803V421.881H494.879V420.385Z" fill="#6F3FBC"/>
<path d="M492.578 387.644H455.09V389.687H492.578V387.644Z" fill="white"/>
<path d="M474.841 369.574V416.233H472.797V369.574H473.827H474.841Z" fill="white"/>
<path d="M440.748 137.341H236.26V446H440.748V137.341Z" fill="#854DCE"/>
<path d="M440.747 420.047H236.291V424.134H440.747V420.047Z" fill="#905DE2"/>
<path d="M448.796 322.803H228.195V340.26H448.796V322.803Z" fill="#581E96"/>
<path d="M440.748 339.938H236.26V344.105H440.748V339.938Z" fill="#6F3FBC"/>
<path d="M448.798 113.866H228.197V137.341H448.798V113.866Z" fill="#581E96"/>
<path d="M440.748 137.341H236.26V140.221H440.748V137.341Z" fill="#6F3FBC"/>
<path d="M448.796 226.33H228.195V232.927H448.796V226.33Z" fill="#581E96"/>
<path d="M440.748 232.927H236.26V235.372H440.748V232.927Z" fill="#6F3FBC"/>
<path d="M448.814 116.939H228.455V119.852H448.814V116.939Z" fill="#401577"/>
<path d="M448.814 122.78H228.455V125.692H448.814V122.78Z" fill="#401577"/>
<path d="M448.814 128.604H228.455V131.517H448.814V128.604Z" fill="#401577"/>
<path d="M448.814 134.428H228.455V137.34H448.814V134.428Z" fill="#401577"/>
<path d="M294.45 351.781H248.672V407.274H294.45V351.781Z" fill="#DDD6FF"/>
<path d="M292.324 353.856H250.795V405.294H292.324V353.856Z" fill="#C3BDEF"/>
<path opacity="0.3" d="M288.993 351.781L248.672 392.069V380.839L277.742 351.781H288.993Z" fill="white"/>
<path opacity="0.3" d="M294.45 351.781V353.02L248.672 398.762V394.949L291.874 351.781H294.45Z" fill="white"/>
<path opacity="0.3" d="M294.447 369.526V380.757L267.92 407.272H256.701L294.447 369.526Z" fill="white"/>
<path opacity="0.3" d="M294.45 383.621V387.466L274.636 407.273H270.805L294.45 383.621Z" fill="white"/>
<path d="M295.85 407.271H247.287V409.894H295.85V407.271Z" fill="white"/>
<path d="M295.85 349.351H247.287V351.973H295.85V349.351Z" fill="white"/>
<path d="M272.881 408.077V350.573H270.257V408.077H272.881Z" fill="white"/>
<path d="M297.023 409.896H246.094V412.518H297.023V409.896Z" fill="white"/>
<path d="M297.023 412.533H246.094V414.786H297.023V412.533Z" fill="#6F3FBC"/>
<path d="M294.45 249.242H248.672V304.734H294.45V249.242Z" fill="#DDD6FF"/>
<path d="M292.324 251.317H250.795V302.755H292.324V251.317Z" fill="#C3BDEF"/>
<path opacity="0.3" d="M288.993 249.242L248.672 289.546V278.316L277.742 249.242H288.993Z" fill="white"/>
<path opacity="0.3" d="M294.45 249.242V250.481L248.672 296.239V292.426L291.874 249.242H294.45Z" fill="white"/>
<path opacity="0.3" d="M294.447 267.005V278.219L267.92 304.734H256.701L294.447 267.005Z" fill="white"/>
<path opacity="0.3" d="M294.45 281.099V284.928L274.636 304.734H270.805L294.45 281.099Z" fill="white"/>
<path d="M295.85 304.734H247.287V307.357H295.85V304.734Z" fill="white"/>
<path d="M295.85 246.812H247.287V249.435H295.85V246.812Z" fill="white"/>
<path d="M272.881 305.54V248.036H270.257V305.54H272.881Z" fill="white"/>
<path d="M297.023 307.372H246.094V309.995H297.023V307.372Z" fill="white"/>
<path d="M297.023 310.013H246.094V312.265H297.023V310.013Z" fill="#6F3FBC"/>
<path d="M361.411 249.242H315.633V304.734H361.411V249.242Z" fill="#DDD6FF"/>
<path d="M359.286 251.317H317.758V302.755H359.286V251.317Z" fill="#C3BDEF"/>
<path opacity="0.3" d="M355.954 249.242L315.633 289.546V278.316L344.703 249.242H355.954Z" fill="white"/>
<path opacity="0.3" d="M361.411 249.242V250.481L315.633 296.239V292.426L358.835 249.242H361.411Z" fill="white"/>
<path opacity="0.3" d="M361.412 267.005V278.219L334.885 304.734H323.666L361.412 267.005Z" fill="white"/>
<path opacity="0.3" d="M361.411 281.099V284.928L341.597 304.734H337.766L361.411 281.099Z" fill="white"/>
<path d="M362.793 304.734H314.23V307.357H362.793V304.734Z" fill="white"/>
<path d="M362.793 246.812H314.23V249.435H362.793V246.812Z" fill="white"/>
<path d="M339.84 305.539V248.035H337.216V305.539H339.84Z" fill="white"/>
<path d="M363.987 307.372H313.059V309.995H363.987V307.372Z" fill="white"/>
<path d="M363.987 310.013H313.059V312.265H363.987V310.013Z" fill="#6F3FBC"/>
<path d="M428.372 249.242H382.594V304.734H428.372V249.242Z" fill="#DDD6FF"/>
<path d="M426.247 251.317H384.719V302.755H426.247V251.317Z" fill="#C3BDEF"/>
<path opacity="0.3" d="M422.915 249.242L382.594 289.546V278.316L411.664 249.242H422.915Z" fill="white"/>
<path opacity="0.3" d="M428.372 249.242V250.481L382.594 296.239V292.426L425.796 249.242H428.372Z" fill="white"/>
<path opacity="0.3" d="M428.371 267.005V278.219L401.844 304.734H390.625L428.371 267.005Z" fill="white"/>
<path opacity="0.3" d="M428.37 281.099V284.928L408.556 304.734H404.725L428.37 281.099Z" fill="white"/>
<path d="M429.754 304.734H381.191V307.357H429.754V304.734Z" fill="white"/>
<path d="M429.754 246.812H381.191V249.435H429.754V246.812Z" fill="white"/>
<path d="M406.799 305.539V248.035H404.175V305.539H406.799Z" fill="white"/>
<path d="M430.946 307.372H380.018V309.995H430.946V307.372Z" fill="white"/>
<path d="M430.946 310.013H380.018V312.265H430.946V310.013Z" fill="#6F3FBC"/>
<path d="M294.45 154.477H248.672V209.969H294.45V154.477Z" fill="#DDD6FF"/>
<path d="M292.324 156.551H250.795V207.989H292.324V156.551Z" fill="#C3BDEF"/>
<path opacity="0.3" d="M288.993 154.477L248.672 194.78V183.55L277.742 154.477H288.993Z" fill="white"/>
<path opacity="0.3" d="M294.45 154.477V155.715L248.672 201.474V197.66L291.874 154.477H294.45Z" fill="white"/>
<path opacity="0.3" d="M294.447 172.237V183.452L267.92 209.967H256.701L294.447 172.237Z" fill="white"/>
<path opacity="0.3" d="M294.45 186.333V190.162L274.636 209.968H270.805L294.45 186.333Z" fill="white"/>
<path d="M295.85 209.968H247.287V212.59H295.85V209.968Z" fill="white"/>
<path d="M295.85 152.063H247.287V154.686H295.85V152.063Z" fill="white"/>
<path d="M272.881 210.773V153.27H270.257V210.773H272.881Z" fill="white"/>
<path d="M297.023 212.606H246.094V215.229H297.023V212.606Z" fill="white"/>
<path d="M297.023 215.245H246.094V217.498H297.023V215.245Z" fill="#6F3FBC"/>
<path d="M361.411 154.477H315.633V209.969H361.411V154.477Z" fill="#DDD6FF"/>
<path d="M359.286 156.551H317.758V207.989H359.286V156.551Z" fill="#C3BDEF"/>
<path opacity="0.3" d="M355.954 154.477L315.633 194.78V183.55L344.703 154.477H355.954Z" fill="white"/>
<path opacity="0.3" d="M361.411 154.477V155.715L315.633 201.474V197.66L358.835 154.477H361.411Z" fill="white"/>
<path opacity="0.3" d="M361.412 172.238V183.453L334.885 209.968H323.666L361.412 172.238Z" fill="white"/>
<path opacity="0.3" d="M361.411 186.333V190.162L341.597 209.968H337.766L361.411 186.333Z" fill="white"/>
<path d="M362.793 209.968H314.23V212.59H362.793V209.968Z" fill="white"/>
<path d="M362.793 152.063H314.23V154.686H362.793V152.063Z" fill="white"/>
<path d="M339.84 210.773V153.27H337.216V210.773H339.84Z" fill="white"/>
<path d="M363.987 212.606H313.059V215.229H363.987V212.606Z" fill="white"/>
<path d="M363.987 215.245H313.059V217.498H363.987V215.245Z" fill="#6F3FBC"/>
<path d="M428.372 154.477H382.594V209.969H428.372V154.477Z" fill="#DDD6FF"/>
<path d="M426.247 156.551H384.719V207.989H426.247V156.551Z" fill="#C3BDEF"/>
<path opacity="0.3" d="M422.915 154.477L382.594 194.78V183.55L411.664 154.477H422.915Z" fill="white"/>
<path opacity="0.3" d="M428.372 154.477V155.715L382.594 201.474V197.66L425.796 154.477H428.372Z" fill="white"/>
<path opacity="0.3" d="M428.371 172.237V183.452L401.844 209.967H390.625L428.371 172.237Z" fill="white"/>
<path opacity="0.3" d="M428.37 186.333V190.162L408.556 209.968H404.725L428.37 186.333Z" fill="white"/>
<path d="M429.754 209.968H381.191V212.59H429.754V209.968Z" fill="white"/>
<path d="M429.754 152.063H381.191V154.686H429.754V152.063Z" fill="white"/>
<path d="M406.799 210.789V153.285H404.175V210.789H406.799Z" fill="white"/>
<path d="M430.946 212.606H380.018V215.229H430.946V212.606Z" fill="white"/>
<path d="M430.946 215.245H380.018V217.498H430.946V215.245Z" fill="#6F3FBC"/>
<path d="M428.356 351.781H382.578V407.274H428.356V351.781Z" fill="#DDD6FF"/>
<path d="M426.232 353.856H384.703V405.294H426.232V353.856Z" fill="#C3BDEF"/>
<path opacity="0.3" d="M422.9 351.781L382.578 392.069V380.839L411.648 351.781H422.9Z" fill="white"/>
<path opacity="0.3" d="M428.356 351.781V353.02L382.578 398.762V394.949L425.781 351.781H428.356Z" fill="white"/>
<path opacity="0.3" d="M428.357 369.526V380.757L401.83 407.272H390.611L428.357 369.526Z" fill="white"/>
<path opacity="0.3" d="M428.355 383.621V387.466L408.54 407.273H404.709L428.355 383.621Z" fill="white"/>
<path d="M429.737 407.271H381.174V409.894H429.737V407.271Z" fill="white"/>
<path d="M429.737 349.351H381.174V351.973H429.737V349.351Z" fill="white"/>
<path d="M406.785 408.077V350.573H404.161V408.077H406.785Z" fill="white"/>
<path d="M430.933 409.896H380.004V412.518H430.933V409.896Z" fill="white"/>
<path d="M430.933 412.533H380.004V414.786H430.933V412.533Z" fill="#6F3FBC"/>
<path d="M245.113 238.077H236.26V244.561H245.113V238.077Z" fill="#7144B7"/>
<path d="M242.634 247.649H236.26V254.133H242.634V247.649Z" fill="#7144B7"/>
<path d="M245.113 257.238H236.26V263.722H245.113V257.238Z" fill="#7144B7"/>
<path d="M242.634 266.827H236.26V273.311H242.634V266.827Z" fill="#7144B7"/>
<path d="M245.113 276.417H236.26V282.901H245.113V276.417Z" fill="#7144B7"/>
<path d="M242.634 286.007H236.26V292.491H242.634V286.007Z" fill="#7144B7"/>
<path d="M245.113 295.597H236.26V302.081H245.113V295.597Z" fill="#7144B7"/>
<path d="M242.634 305.186H236.26V311.67H242.634V305.186Z" fill="#7144B7"/>
<path d="M245.113 314.774H236.26V321.258H245.113V314.774Z" fill="#7144B7"/>
<path d="M431.895 244.545H440.748V238.061H431.895V244.545Z" fill="#7144B7"/>
<path d="M434.391 254.149H440.766V247.665H434.391V254.149Z" fill="#7144B7"/>
<path d="M431.895 263.723H440.748V257.239H431.895V263.723Z" fill="#7144B7"/>
<path d="M434.391 273.312H440.766V266.828H434.391V273.312Z" fill="#7144B7"/>
<path d="M431.895 282.901H440.748V276.417H431.895V282.901Z" fill="#7144B7"/>
<path d="M434.391 292.49H440.766V286.006H434.391V292.49Z" fill="#7144B7"/>
<path d="M431.895 302.063H440.748V295.579H431.895V302.063Z" fill="#7144B7"/>
<path d="M434.391 311.653H440.766V305.169H434.391V311.653Z" fill="#7144B7"/>
<path d="M431.895 321.242H440.748V314.758H431.895V321.242Z" fill="#7144B7"/>
<path d="M245.113 141.298H236.26V147.782H245.113V141.298Z" fill="#7144B7"/>
<path d="M242.634 150.889H236.26V157.373H242.634V150.889Z" fill="#7144B7"/>
<path d="M245.113 160.478H236.26V166.962H245.113V160.478Z" fill="#7144B7"/>
<path d="M242.634 170.066H236.26V176.55H242.634V170.066Z" fill="#7144B7"/>
<path d="M245.113 179.64H236.26V186.124H245.113V179.64Z" fill="#7144B7"/>
<path d="M242.634 189.229H236.26V195.714H242.634V189.229Z" fill="#7144B7"/>
<path d="M245.113 198.818H236.26V205.302H245.113V198.818Z" fill="#7144B7"/>
<path d="M242.634 208.407H236.26V214.891H242.634V208.407Z" fill="#7144B7"/>
<path d="M245.113 217.997H236.26V224.481H245.113V217.997Z" fill="#7144B7"/>
<path d="M431.895 147.783H440.748V141.299H431.895V147.783Z" fill="#7144B7"/>
<path d="M434.391 157.354H440.766V150.87H434.391V157.354Z" fill="#7144B7"/>
<path d="M431.895 166.946H440.748V160.462H431.895V166.946Z" fill="#7144B7"/>
<path d="M434.391 176.535H440.766V170.051H434.391V176.535Z" fill="#7144B7"/>
<path d="M431.895 186.141H440.748V179.657H431.895V186.141Z" fill="#7144B7"/>
<path d="M434.391 195.729H440.766V189.245H434.391V195.729Z" fill="#7144B7"/>
<path d="M431.895 205.303H440.748V198.819H431.895V205.303Z" fill="#7144B7"/>
<path d="M434.391 214.892H440.766V208.408H434.391V214.892Z" fill="#7144B7"/>
<path d="M431.895 224.481H440.748V217.997H431.895V224.481Z" fill="#7144B7"/>
<path d="M380.774 438.02H296.252V446H380.774V438.02Z" fill="white"/>
<path d="M375.077 430.039H301.936V438.019H375.077V430.039Z" fill="white"/>
<path d="M375.077 436.249H301.936V438.035H375.077V436.249Z" fill="#DDD6FF"/>
<path d="M338.506 346.438C330.353 346.451 322.538 349.695 316.775 355.459C311.012 361.223 307.77 369.036 307.762 377.185V430.039H310.482V377.185C310.482 369.756 313.435 362.631 318.69 357.378C323.945 352.125 331.073 349.174 338.506 349.174C345.938 349.174 353.066 352.125 358.322 357.378C363.577 362.631 366.529 369.756 366.529 377.185V430.039H369.25V377.185C369.241 369.036 366 361.223 360.237 355.459C354.473 349.695 346.658 346.451 338.506 346.438Z" fill="white"/>
<path d="M366.528 377.184V430.038H310.48V377.184C310.48 376.27 310.529 375.357 310.625 374.449C311.301 367.529 314.531 361.108 319.685 356.438C324.839 351.768 331.548 349.184 338.504 349.189C339.732 349.185 340.959 349.271 342.174 349.446C345.936 349.921 349.559 351.17 352.814 353.114C353.942 353.771 355.019 354.513 356.033 355.335C356.856 355.969 357.636 356.657 358.367 357.394L358.448 357.475C362.739 361.782 365.498 367.378 366.303 373.403C366.303 373.757 366.399 374.111 366.431 374.465C366.512 375.369 366.544 376.277 366.528 377.184Z" fill="#DDD6FF"/>
<g opacity="0.3">
<path d="M352.814 353.1L310.48 395.399V381.112L342.174 349.432C345.936 349.907 349.559 351.156 352.814 353.1Z" fill="white"/>
<path d="M358.399 357.461L310.48 405.343V400.806L355.985 355.321C356.808 355.955 357.587 356.643 358.319 357.381L358.399 357.461Z" fill="white"/>
<path d="M366.528 377.185V387.418L323.873 430.038H310.48V429.121L366.254 373.323C366.447 374.601 366.538 375.892 366.528 377.185Z" fill="white"/>
<path d="M366.528 392.809V397.362L333.82 430.039H329.281L366.528 392.809Z" fill="white"/>
</g>
<path d="M366.528 377.185V377.314H310.48V377.185C310.48 376.272 310.529 375.359 310.625 374.45H366.383C366.48 375.359 366.528 376.272 366.528 377.185Z" fill="white"/>
<path d="M339.938 430.039V375.882H337.056V430.039H339.938Z" fill="white"/>
<path d="M374.046 322.513C374.046 322.087 373.876 321.677 373.574 321.376C373.272 321.074 372.863 320.904 372.436 320.904H304.606C304.179 320.904 303.77 321.074 303.468 321.376C303.166 321.677 302.996 322.087 302.996 322.513V323.977C301.974 323.93 300.954 324.091 299.996 324.449C299.038 324.807 298.162 325.356 297.423 326.062C296.683 326.768 296.094 327.617 295.692 328.557C295.289 329.497 295.082 330.509 295.082 331.531C295.082 332.554 295.289 333.566 295.692 334.506C296.094 335.446 296.683 336.294 297.423 337C298.162 337.706 299.038 338.255 299.996 338.614C300.954 338.972 301.974 339.132 302.996 339.085V340.566C302.996 340.992 303.166 341.401 303.468 341.703C303.77 342.005 304.179 342.174 304.606 342.174H372.42C372.847 342.174 373.256 342.005 373.558 341.703C373.86 341.401 374.029 340.992 374.029 340.566C374.026 340.175 374.164 339.797 374.419 339.501C374.673 339.205 375.027 339.011 375.414 338.957C377.149 338.632 378.716 337.712 379.844 336.354C380.972 334.997 381.589 333.288 381.589 331.523C381.589 329.759 380.972 328.05 379.844 326.692C378.716 325.335 377.149 324.414 375.414 324.09C375.035 324.033 374.69 323.842 374.439 323.553C374.188 323.264 374.049 322.896 374.046 322.513Z" stroke="#EAA221" stroke-miterlimit="10"/>
<path d="M374.046 322.513C374.046 322.087 373.876 321.677 373.574 321.376C373.272 321.074 372.863 320.904 372.436 320.904H304.606C304.179 320.904 303.77 321.074 303.468 321.376C303.166 321.677 302.996 322.087 302.996 322.513V323.977C301.974 323.93 300.954 324.091 299.996 324.449C299.038 324.807 298.162 325.356 297.423 326.062C296.683 326.768 296.094 327.617 295.692 328.557C295.289 329.497 295.082 330.509 295.082 331.531C295.082 332.554 295.289 333.566 295.692 334.506C296.094 335.446 296.683 336.294 297.423 337C298.162 337.706 299.038 338.255 299.996 338.614C300.954 338.972 301.974 339.132 302.996 339.085V340.566C302.996 340.992 303.166 341.401 303.468 341.703C303.77 342.005 304.179 342.174 304.606 342.174H372.42C372.847 342.174 373.256 342.005 373.558 341.703C373.86 341.401 374.029 340.992 374.029 340.566C374.026 340.175 374.164 339.797 374.419 339.501C374.673 339.205 375.027 339.011 375.414 338.957C377.149 338.632 378.716 337.712 379.844 336.354C380.972 334.997 381.589 333.288 381.589 331.523C381.589 329.759 380.972 328.05 379.844 326.692C378.716 325.335 377.149 324.414 375.414 324.09C375.035 324.033 374.69 323.842 374.439 323.553C374.188 323.264 374.049 322.896 374.046 322.513Z" fill="#F8D846"/>
<path d="M310.093 330.775V323.234H311.006V326.592H315.028V323.234H315.941V330.775H315.028V327.402H311.006V330.775H310.093ZM324.133 327.004C324.133 327.8 323.989 328.487 323.702 329.067C323.415 329.646 323.02 330.093 322.52 330.407C322.019 330.721 321.447 330.879 320.804 330.879C320.16 330.879 319.588 330.721 319.088 330.407C318.587 330.093 318.193 329.646 317.905 329.067C317.618 328.487 317.475 327.8 317.475 327.004C317.475 326.209 317.618 325.522 317.905 324.942C318.193 324.363 318.587 323.916 319.088 323.602C319.588 323.288 320.16 323.13 320.804 323.13C321.447 323.13 322.019 323.288 322.52 323.602C323.02 323.916 323.415 324.363 323.702 324.942C323.989 325.522 324.133 326.209 324.133 327.004ZM323.249 327.004C323.249 326.351 323.14 325.8 322.921 325.351C322.705 324.902 322.412 324.562 322.041 324.331C321.673 324.1 321.26 323.985 320.804 323.985C320.347 323.985 319.933 324.1 319.563 324.331C319.194 324.562 318.901 324.902 318.682 325.351C318.466 325.8 318.358 326.351 318.358 327.004C318.358 327.658 318.466 328.209 318.682 328.658C318.901 329.107 319.194 329.447 319.563 329.678C319.933 329.909 320.347 330.024 320.804 330.024C321.26 330.024 321.673 329.909 322.041 329.678C322.412 329.447 322.705 329.107 322.921 328.658C323.14 328.209 323.249 327.658 323.249 327.004ZM324.942 324.044V323.234H330.598V324.044H328.227V330.775H327.313V324.044H324.942ZM332.008 330.775V323.234H336.559V324.044H332.921V326.592H336.324V327.402H332.921V329.965H336.618V330.775H332.008ZM338.205 330.775V323.234H339.119V329.965H342.624V330.775H338.205Z" fill="#581E96"/>
<path d="M428.225 94.2041H248.783V113.881H428.225V94.2041Z" fill="#854DCE"/>
<path d="M431.315 86.7715H245.691V94.2048H431.315V86.7715Z" fill="#581E96"/>
<path d="M428.225 94.2041H248.783V97.0841H428.225V94.2041Z" fill="#6F3FBC"/>
<path d="M292.163 99.3213H253.596V111.308H292.163V99.3213Z" fill="#C3BDEF"/>
<path opacity="0.3" d="M280.124 99.3213L268.132 111.324H256.285L268.277 99.3213H280.124Z" fill="white"/>
<path opacity="0.3" d="M286.852 99.3213L274.844 111.324H271.496L283.488 99.3213H286.852Z" fill="white"/>
<path d="M335.655 99.3213H297.088V111.308H335.655V99.3213Z" fill="#C3BDEF"/>
<path opacity="0.3" d="M323.618 99.3213L311.626 111.324H299.779L311.771 99.3213H323.618Z" fill="white"/>
<path opacity="0.3" d="M330.327 99.3213L318.335 111.324H314.971L326.979 99.3213H330.327Z" fill="white"/>
<path d="M379.149 99.3213H340.582V111.308H379.149V99.3213Z" fill="#C3BDEF"/>
<path opacity="0.3" d="M367.11 99.3213L355.118 111.324H343.271L355.263 99.3213H367.11Z" fill="white"/>
<path opacity="0.3" d="M373.819 99.3213L361.827 111.324H358.463L370.471 99.3213H373.819Z" fill="white"/>
<path d="M422.641 99.3213H384.074V111.308H422.641V99.3213Z" fill="#C3BDEF"/>
<path opacity="0.3" d="M410.601 99.3213L398.593 111.324H386.746L398.754 99.3213H410.601Z" fill="white"/>
<path opacity="0.3" d="M417.311 99.3213L405.319 111.324H401.955L413.963 99.3213H417.311Z" fill="white"/>
<path d="M465.846 484.195C465.846 486.351 485.741 488.105 510.272 488.105C534.802 488.105 554.681 486.351 554.681 484.195C554.681 482.039 534.802 480.27 510.272 480.27C485.741 480.27 465.846 482.023 465.846 484.195Z" fill="#E6ECEF"/>
<path d="M501.611 243.724C499.86 245.33 498.477 247.295 497.554 249.484C497.104 250.582 496.92 251.771 497.018 252.954C497.116 254.137 497.493 255.28 498.118 256.289C498.434 256.842 498.912 257.285 499.488 257.558C500.063 257.831 500.708 257.922 501.337 257.818C501.663 257.72 501.972 257.573 502.254 257.384C503.75 256.429 505.021 255.16 505.977 253.665C506.933 252.17 507.552 250.485 507.792 248.727" fill="#153351"/>
<path d="M536.539 467.624C536.539 467.624 538.535 473.384 539.098 474.816C539.662 476.248 543.927 474.945 544.185 474.011C544.442 473.078 542.575 466.208 542.575 466.208" fill="#FCB6AC"/>
<path d="M545.454 474.139C545.969 475.668 546.935 477.856 546.726 478.628C546.517 479.401 541.108 481.685 539.885 482.425C538.654 483.098 537.339 483.601 535.974 483.922C532.368 484.565 529.535 483.922 529.326 483.375C528.183 481.042 535.33 479.481 538.372 472.9C538.58 472.899 538.785 472.943 538.974 473.029C539.163 473.116 539.331 473.242 539.466 473.399C539.83 473.83 540.328 474.124 540.881 474.235C541.433 474.346 542.007 474.267 542.509 474.011C543.168 473.598 543.689 472.999 544.006 472.289C544.365 472.476 544.681 472.738 544.931 473.057C545.181 473.376 545.359 473.745 545.454 474.139Z" fill="#5245B5"/>
<path d="M488.877 469.988C488.877 469.988 489.022 476.07 489.118 477.631C489.215 479.191 493.706 479.24 494.221 478.387C494.736 477.534 494.994 470.455 494.994 470.455" fill="#FCB6AC"/>
<path d="M495.38 478.903C495.578 480.456 495.529 482.031 495.236 483.569C494.801 484.245 488.942 484.775 487.558 485.178C486.181 485.454 484.771 485.53 483.373 485.403C479.751 484.92 477.304 483.488 477.224 482.877C476.837 480.303 484.113 480.994 489.006 475.637C489.204 475.701 489.387 475.805 489.542 475.944C489.697 476.083 489.822 476.252 489.908 476.441C490.122 476.964 490.509 477.399 491.003 477.673C491.497 477.948 492.07 478.047 492.628 477.954C493.376 477.757 494.052 477.349 494.576 476.779C494.852 477.057 495.066 477.389 495.205 477.755C495.343 478.121 495.403 478.512 495.38 478.903Z" fill="#5245B5"/>
<path d="M439.621 232.605C439.621 231.946 440.506 232.203 440.78 232.734C440.838 232.881 440.886 233.031 440.925 233.184C440.798 232.466 440.712 231.741 440.667 231.012C440.667 230.385 441.488 230.562 441.778 231.012C441.755 230.713 441.755 230.411 441.778 230.111C441.778 229.307 442.663 229.58 442.921 230.224C443.037 230.578 443.134 230.938 443.211 231.302C443.211 231.028 443.211 230.803 443.211 230.707C443.211 230.047 444.015 230.16 444.273 230.707C444.408 231.118 444.515 231.537 444.595 231.962C444.74 232.621 444.981 233.313 445.126 233.973C445.271 234.633 446.188 237.352 447.621 237.529C449.826 237.818 448.136 234.182 449.601 233.201C450.052 232.895 450.792 235.775 450.969 237.416C451.142 238.555 451.201 239.708 451.146 240.859C450.963 241.848 450.844 242.848 450.792 243.852C451.156 244.84 451.648 245.776 452.257 246.635L446.897 248.325C446.262 247.074 445.508 245.889 444.643 244.785C442.898 243.309 441.589 241.384 440.861 239.218C440.395 237.799 440.066 236.339 439.879 234.858C439.879 234.858 439.621 232.83 439.621 232.605Z" fill="#FCB6AC"/>
<path d="M494.688 273.956C494.688 273.956 477.368 275.179 467.115 265.526C458.745 255.647 450.552 244.609 449.924 243.596C448.491 244.288 445.449 245.993 445.449 245.993C445.449 245.993 457.183 267.311 461.449 272.058C465.715 276.804 473.988 284.447 490.422 287.23C497.376 277.753 494.688 273.956 494.688 273.956Z" fill="#FCB6AC"/>
<path d="M482.987 412.662C481.989 399.597 486.512 358.618 486.947 355.094C487.381 351.57 489.876 351.104 491.776 350.525C501.24 347.693 512.46 362.35 509.482 375.528C509.441 375.75 509.388 375.971 509.321 376.187C507.55 383.814 497.522 408.366 498.214 415.413C503.719 430.231 497.474 460.962 495.607 473.882H494.931C492.448 473.851 489.974 473.582 487.542 473.077C487.542 473.077 483.985 425.743 482.987 412.662Z" fill="#5245B5"/>
<path d="M494.995 415.236C494.657 410.409 499.534 372.036 500.742 372.567C501.125 372.783 501.429 373.116 501.611 373.516C502.625 375.254 503.591 377.008 504.444 378.826C505.308 380.709 506.055 382.643 506.681 384.618C503.14 395.06 497.667 410.104 498.182 415.413C501.402 424.198 500.581 438.566 498.939 451.518C499.583 434.463 495.269 419.097 494.995 415.236Z" fill="#39349B"/>
<path d="M488.474 341.145C492.011 341.819 495.616 342.056 499.21 341.853C508.305 341.612 519.83 337.026 519.83 337.026C531.419 349.576 525.045 364.266 525.447 369.093C525.85 373.919 526.8 396.863 527.83 409.654C539.596 421.158 540.015 451.76 543.459 467.849C543.459 468.026 543.54 468.219 543.588 468.396C541.066 469.383 538.451 470.111 535.781 470.568L535.331 469.281C531.822 458.71 515.661 428.35 511.621 416.492C507.983 405.728 498.55 373.05 498.373 373.05L486.333 375.11C486.213 363.751 486.928 352.399 488.474 341.145Z" fill="#5245B5"/>
<path d="M521.375 258.429C520.719 260.361 519.739 262.167 518.477 263.771C516.079 267.133 513.053 270.464 512.795 270.963C512.285 272.09 512.093 273.335 512.241 274.563C512.388 275.791 512.87 276.955 513.632 277.929L507.033 283.947L505.005 285.813L503.653 284.462L499.516 280.343L499.854 274.808C500.54 274.298 501.016 273.554 501.19 272.716C501.239 272.531 501.298 272.348 501.367 272.169C501.528 271.622 501.657 271.172 501.673 271.043C501.206 270.818 500.063 270.351 497.971 269.209C496.956 268.518 496.192 267.519 495.792 266.359C495.392 265.2 495.377 263.942 495.749 262.773C496.2 260.746 499.387 250.593 499.387 250.593C502.268 237.995 518.59 245.767 520.779 248.148C522.968 250.529 522.244 254.568 521.375 258.429Z" fill="#FCB6AC"/>
<path d="M527.848 355.223C525.578 355.641 523.373 355.979 521.216 356.237C509.292 357.805 497.189 357.386 485.402 354.998C485.402 354.998 483.663 305.362 491.261 278.975C492.629 274.229 495.06 273.264 499.792 273.698C504.09 281.308 512.878 274.808 512.878 274.808C516.235 276.575 519.369 278.736 522.214 281.244C522.784 281.944 523.141 282.793 523.244 283.69C523.79 287.165 524.054 290.678 524.033 294.196C524.146 300.793 523.888 307.422 524.033 307.631C524.178 307.84 524.242 311.573 524.419 316.882V317.735C524.741 325.989 526.689 347.935 527.848 355.223Z" fill="#B0B1FD"/>
<path d="M524.466 317.653V316.8C524.289 311.491 524.176 307.694 524.079 307.549C523.983 307.404 524.192 300.711 524.079 294.114L518.558 293.326C518.558 293.326 510.188 292.489 509.995 292.715C509.802 292.94 508.096 293.921 505.971 295.192C503.637 294.082 501.689 293.181 501.512 293.165L495.428 292.28L493.818 293.889C495.425 295.113 497.138 296.189 498.937 297.107C498.822 298.031 498.822 298.966 498.937 299.891C503.321 301.281 507.81 302.314 512.361 302.98C513.663 303.141 514.89 303.675 515.895 304.517C516.9 305.359 517.64 306.474 518.027 307.726C518.129 308.037 518.209 308.354 518.269 308.675C518.977 311.893 520.619 343.364 521.247 356.316C523.403 356.059 525.609 355.721 527.878 355.302C526.687 347.933 524.739 325.988 524.466 317.653Z" fill="#989DED"/>
<path d="M496.249 273.762C490.555 274.405 484.791 273.62 479.477 271.478C475.002 276.739 473.199 285.186 473.199 285.186C473.199 285.186 484.016 292.056 491.919 292.715C492.81 286.284 494.259 279.942 496.249 273.762Z" fill="#B0B1FD"/>
<path d="M494.737 275.403C491.3 280.365 489.093 286.073 488.299 292.056C482.918 290.65 477.821 288.326 473.232 285.186C475.631 285.958 485.868 289.771 487.285 286.618C489.24 282.554 491.747 278.78 494.737 275.403Z" fill="#989DED"/>
<path d="M434.601 219.028L451.824 221.779C452.382 221.866 452.952 221.818 453.487 221.638C454.022 221.459 454.506 221.154 454.899 220.749L466.923 208.119C467.373 207.65 467.945 207.315 468.574 207.153C469.204 206.991 469.867 207.008 470.487 207.202C471.108 207.396 471.662 207.759 472.087 208.251C472.513 208.743 472.792 209.344 472.894 209.985L475.599 227.201C475.684 227.76 475.905 228.289 476.242 228.743C476.578 229.198 477.021 229.563 477.53 229.808L493.256 237.337C493.844 237.618 494.341 238.058 494.692 238.607C495.042 239.155 495.233 239.791 495.241 240.442C495.249 241.093 495.076 241.733 494.739 242.291C494.403 242.848 493.917 243.3 493.337 243.596L477.772 251.48C477.268 251.737 476.834 252.114 476.509 252.576C476.184 253.039 475.976 253.574 475.904 254.135L473.587 271.415C473.501 272.058 473.237 272.663 472.824 273.164C472.412 273.665 471.868 274.04 471.253 274.247C470.639 274.455 469.978 274.487 469.347 274.339C468.715 274.191 468.137 273.869 467.679 273.41L455.349 261.069C454.953 260.668 454.464 260.369 453.925 260.201C453.386 260.033 452.814 259.999 452.259 260.104L435.1 263.241C434.462 263.355 433.805 263.289 433.202 263.051C432.6 262.812 432.075 262.411 431.688 261.892C431.3 261.372 431.065 260.756 431.008 260.11C430.951 259.465 431.075 258.817 431.366 258.238L439.317 242.711C439.574 242.214 439.708 241.662 439.708 241.102C439.708 240.543 439.574 239.991 439.317 239.493L431.028 224.16C430.715 223.59 430.568 222.945 430.603 222.296C430.637 221.647 430.852 221.021 431.224 220.487C431.595 219.954 432.108 219.535 432.705 219.277C433.301 219.019 433.958 218.933 434.601 219.028Z" fill="#F8D845"/>
<path d="M507.889 299.441C500.823 297.528 494.13 294.439 488.09 290.303C485.182 288.219 483.092 285.186 482.183 281.727C480.477 272.17 483.519 254.89 484.984 248.551C489.282 248.824 490.151 249.741 490.151 249.741C490.151 249.741 491.455 268.373 491.294 279.362C491.294 279.362 501.788 285.943 512.975 285.283" fill="#FCB6AC"/>
<path d="M490.132 250.287C490.117 248.562 490.463 246.852 491.146 245.267C492.16 243.465 494.864 240.939 494.14 238.301C493.197 236.284 491.505 234.715 489.424 233.924C485.319 232.235 483.629 232.717 483.339 233.618C483.05 234.52 485.464 236.402 485.319 238.156C485.174 239.909 484.273 240.521 483.549 242.098C482.438 244.463 484.933 247.294 484.933 248.807C484.917 249.869 490.132 250.287 490.132 250.287Z" fill="#FCB6AC"/>
<path d="M516.528 283.61C512.113 284.45 507.593 284.585 503.136 284.012C501.327 288.736 500.105 293.664 499.498 298.685C499.498 298.685 507.546 303.4 519.683 299.506C521.367 298.937 522.83 297.855 523.866 296.412C524.903 294.969 525.461 293.238 525.461 291.461C525.703 283.014 521.47 280.521 521.47 280.521" fill="#B0B1FD"/>
<path d="M503.141 284.012H505.137H509.515H511.865C512.621 284.012 513.314 284.012 513.909 284.012L515.342 283.932H515.905C515.27 284.157 514.619 284.335 513.957 284.463C512.502 284.728 511.026 284.862 509.547 284.865C508.072 284.863 506.599 284.766 505.137 284.575C503.913 284.205 503.141 284.012 503.141 284.012Z" fill="#989DED"/>
<path d="M505.424 246.603C501.786 245.477 496.925 245.252 499.066 239.958C500.322 236.869 504.555 234.359 509.658 234.633C511.766 234.745 514.052 236.515 515.806 238.977C516.839 240.516 518.189 241.816 519.766 242.79C525.625 246.233 526.205 252.041 524.804 257.898C524.804 257.898 521.231 270.303 511.847 270.77C511.947 268.84 512.271 266.929 512.812 265.074C512.812 265.074 516.82 263.867 517.513 261.599C517.578 261.319 517.585 261.028 517.532 260.746C517.479 260.463 517.368 260.195 517.207 259.957C517.045 259.72 516.835 259.519 516.591 259.366C516.348 259.214 516.075 259.114 515.79 259.072C514.664 259.072 513.794 260.472 513.794 260.472C513.781 258.89 513.926 257.311 514.229 255.758C514.425 254.934 514.896 254.202 515.565 253.683C515.323 253.345 513.472 249.129 505.424 246.603Z" fill="#153351"/>
<path d="M507.339 271.236C505.538 272.305 503.393 272.64 501.352 272.169C501.513 271.622 501.641 271.172 501.657 271.043C503.535 271.354 505.445 271.419 507.339 271.236Z" fill="#F2A49C"/>
<path d="M114.637 484.195C114.637 486.351 134.532 488.105 159.063 488.105C183.594 488.105 203.472 486.351 203.472 484.195C203.472 482.039 183.594 480.27 159.063 480.27C134.532 480.27 114.637 482.023 114.637 484.195Z" fill="#E6ECEF"/>
<path d="M166.934 251.301C169.461 255.677 167.272 261.662 169.831 266.023C170.861 267.776 172.6 269.144 173.05 271.107C173.267 271.946 173.234 272.83 172.954 273.651C172.674 274.471 172.16 275.191 171.476 275.723C170.791 276.255 169.966 276.576 169.102 276.644C168.237 276.713 167.372 276.528 166.612 276.111C166.302 275.913 165.973 275.746 165.63 275.612C164.358 275.242 163.215 276.368 162.121 277.108C161.467 277.587 160.712 277.91 159.914 278.052C159.116 278.194 158.296 278.152 157.517 277.929C156.572 277.501 155.736 276.865 155.073 276.068C154.409 275.271 153.935 274.334 153.686 273.327C151.851 267.825 153.155 261.807 154.845 256.273C155.698 253.505 156.938 250.432 159.674 249.435" fill="#383493"/>
<path d="M207.11 309.997C198.563 314.824 186.265 321.613 184.881 321.613C182.708 321.613 167.948 307.664 163.119 290.384C161.96 286.265 162.411 281.422 166.338 279.314C167.493 279.713 168.556 280.338 169.466 281.153C170.375 281.968 171.112 282.957 171.634 284.061C174.853 290.078 184.414 310.061 186.523 310.817C188.74 309.666 191.05 308.702 193.428 307.937V309.997H207.11Z" fill="#FFB9B0"/>
<path d="M165.145 278.814C166.935 279.227 168.613 280.023 170.064 281.149C171.514 282.274 172.703 283.701 173.548 285.331C173.984 286.179 174.366 287.055 174.69 287.953C176.187 291.766 178.248 295.21 179.761 299.023C177.747 300.45 175.512 301.537 173.145 302.241C171.177 302.969 169.071 303.249 166.98 303.061C166.627 303.043 166.279 302.967 165.95 302.836C165.527 302.614 165.159 302.301 164.872 301.919C164.228 301.179 163.6 300.422 162.988 299.666C162.279 298.961 161.807 298.052 161.637 297.066C161.467 296.08 161.607 295.066 162.039 294.164" fill="#7762EF"/>
<g style="mix-blend-mode:multiply" opacity="0.35">
<path d="M168.834 289.224C168.705 289.051 168.54 288.908 168.351 288.805C168.156 288.756 167.95 288.774 167.766 288.856C167.582 288.938 167.431 289.078 167.337 289.256C167.17 289.624 167.098 290.027 167.127 290.43C167.143 291.981 167.387 293.52 167.852 295L167.369 303.044C169.327 303.17 171.29 302.885 173.131 302.208C174 301.886 174.934 301.548 175.884 301.162C174.934 296.641 171.844 292.876 168.834 289.224Z" fill="#7762EF"/>
</g>
<path d="M156.375 270.834C156.375 270.834 156.263 275.87 157.035 276.192C158.077 276.623 159.154 276.962 160.255 277.206V287.615L146.363 285.524L136.818 280.214C136.818 280.214 146.75 276.916 146.83 275.935C146.911 274.953 146.283 269.37 146.283 269.37" fill="#FFB9B0"/>
<path d="M135.031 421.495C131.232 439.499 133.035 464.228 132.182 477.807C132.391 477.807 137.349 478.483 137.349 478.483C137.349 478.483 149.099 421.35 151.24 410.409C151.38 409.709 151.466 408.999 151.497 408.285C152.012 400.047 144.592 399.629 140.407 406.435C139.679 407.614 139.039 408.846 138.491 410.119C138.266 410.65 138.041 411.197 137.815 411.728C137.101 413.609 136.488 415.526 135.98 417.472V417.681C135.803 418.261 135.675 418.84 135.53 419.435V419.564C135.288 420.256 135.208 420.867 135.031 421.495Z" fill="#FFB9B0"/>
<path d="M157.275 356.864C157.147 358.36 156.342 365.456 155.392 373.822C154.571 380.853 153.686 388.769 152.978 395.044C152.463 399.758 152.092 403.507 151.931 405.277C151.857 406.298 151.717 407.314 151.513 408.318C149.726 416.539 144.044 417.022 140.583 415.124C140.113 414.878 139.675 414.575 139.28 414.223C138.529 413.6 138.008 412.745 137.799 411.793C137.589 410.104 137.364 407.803 137.171 405.068V404.987C136.752 399.646 136.398 392.775 136.076 386.082C135.706 377.86 135.465 369.993 135.4 365.456C135.4 365.198 135.4 364.957 135.4 364.732C135.4 351.023 147.939 342.206 155.762 346.486L156.052 346.631C156.142 346.7 156.239 346.759 156.342 346.808C157.243 347.403 157.533 349.447 157.549 351.796C157.548 353.489 157.456 355.18 157.275 356.864Z" fill="#FFB9B0"/>
<path d="M138.106 408.592L137.14 405.004C137.201 409.213 136.802 413.416 135.949 417.538V417.747C135.82 418.31 135.675 418.921 135.498 419.5V419.629C135.306 420.226 135.171 420.841 135.096 421.463C135.096 423.072 138.54 415.864 139.345 414.175C139.393 414.06 139.447 413.947 139.506 413.837L138.556 410.072L138.106 408.592Z" fill="#FFB9B0"/>
<path d="M165.246 424.939C164.892 443.779 170.719 465.95 172.264 479.642C172.441 479.642 177.012 479.031 177.012 479.031C177.012 479.031 177.882 421.27 177.946 409.847C177.952 409.121 177.915 408.396 177.833 407.675C176.9 399.356 170.139 400.788 167.532 408.592C167.075 409.944 166.71 411.326 166.437 412.727C166.324 413.306 166.212 413.901 166.099 414.545C165.793 416.492 165.552 418.551 165.423 420.723V420.932C165.423 421.56 165.326 422.171 165.31 422.783V422.927C165.278 423.651 165.262 424.279 165.246 424.939Z" fill="#FFB9B0"/>
<path d="M169.171 417.247C168.701 417.117 168.251 416.922 167.835 416.668C167.03 416.22 166.417 415.493 166.113 414.625C165.614 413.016 165.018 410.731 164.374 408.06C163.103 402.863 161.59 396.106 160.189 389.541C158.451 381.497 156.889 373.629 156.085 369.188C156.085 368.947 155.312 365.713 155.264 365.472C152.849 351.699 163.602 342.721 171.36 345.344L171.666 345.456C173.275 346.084 173.678 351.603 174.032 355.335C174.386 359.068 177.042 397.747 177.702 404.73C177.799 405.773 177.842 406.82 177.831 407.867C177.654 416.378 172.616 418.277 169.171 417.247Z" fill="#FFB9B0"/>
<path d="M165.793 411.327L164.328 407.996C165.109 412.203 165.465 416.477 165.39 420.755V420.964C165.39 421.576 165.39 422.203 165.278 422.814V422.959C165.229 423.602 165.229 424.247 165.278 424.89C165.551 426.499 167.435 418.454 167.869 416.572C167.869 416.33 167.869 416.202 167.869 416.202L166.388 412.694L165.793 411.327Z" fill="#FFB9B0"/>
<path d="M141.873 330.413C141.873 330.413 131.764 343.284 132.81 356.156C133.229 361.53 133.905 366.26 134.517 371.666C134.597 372.438 135.82 383.797 135.466 383.797C135.466 383.797 156.391 390.233 176.448 381.802C176.448 380.435 178.057 354.016 167.176 328.836C158.791 329.977 150.334 330.504 141.873 330.413Z" fill="#5146AF"/>
<path d="M173.549 300.76C173.549 304.445 171.505 306.681 168.72 309.787C167.906 314.485 167.395 319.23 167.191 323.994C167.046 326.825 168.253 328.611 167.191 328.82C163.151 332.344 148.584 335.256 141.904 330.429C142.596 324.492 139.94 311.428 138.153 304.783C137.864 303.769 137.622 302.9 137.397 302.241C135.787 297.189 132.713 281.019 134.95 280.311C135.385 280.166 136.077 279.989 136.882 279.748C140.375 278.686 145.541 276.884 145.541 276.884C145.541 276.884 148.568 285.829 156.439 286.924C160.736 285.154 160.35 279.716 160.302 277.27C161.702 277.656 162.33 278.042 166.74 279.329C167.964 281.083 166.917 284.768 168.881 290.238C169.3 291.541 173.646 296.288 173.549 300.76Z" fill="#7762EF"/>
<path d="M166.421 250.288C166.421 250.288 167.21 259.941 165.552 265.106C164.654 267.174 163.195 268.949 161.34 270.231C159.486 271.514 157.309 272.252 155.057 272.362C143.435 272.362 141.359 256.595 141.423 255.823C141.488 255.05 158.55 248.438 158.55 248.438L166.421 250.288Z" fill="#FFB9B0"/>
<path d="M188.535 485.162C184.399 485.902 179.988 484.743 178.169 485.049C176.672 485.306 172.825 486.288 171.393 485.049C169.96 483.81 170.186 479.192 171.843 478.613C172.189 478.732 172.544 478.819 172.906 478.871C174.524 479.093 176.172 478.962 177.735 478.484C180.954 479.772 180.954 480.335 184.576 481.059C186.142 481.364 187.674 481.828 189.147 482.442C190.741 483.054 190.869 484.743 188.535 485.162Z" fill="#5045AF"/>
<path d="M143.901 486.979C139.749 486.271 137.125 483.986 135.322 483.665C133.825 483.407 130.059 482.667 129.656 481.123C129.366 479.98 130.509 475.202 132.264 475.186C132.556 475.417 132.868 475.622 133.197 475.797C134.662 476.563 136.278 476.996 137.93 477.068C140.457 479.353 140.376 479.932 143.499 481.814C144.87 482.63 146.154 483.584 147.33 484.662C148.537 485.837 146.235 487.365 143.901 486.979Z" fill="#5045AF"/>
<path d="M135.528 299.536C128.526 304.782 114.893 321.675 110.563 322.56H110.225V309.689L110.53 309.962C110.53 309.962 121.798 294.887 125.017 290.189C128.446 284.992 131.456 280.535 136.542 279.698C137.669 280.503 136.124 299.086 135.528 299.536Z" fill="#FFB9B0"/>
<path d="M138.235 278.959C138.235 278.959 133.487 278.959 131.458 280.697C129.43 282.434 119.676 297.816 119.676 297.816C119.67 298.844 119.897 299.86 120.34 300.788C120.784 301.716 121.431 302.532 122.235 303.173C124.251 304.811 126.679 305.863 129.253 306.214C129.253 306.214 134.082 301.388 136.899 299.135C138.621 297.751 138.782 301.178 138.782 301.178L147.41 292.764L138.235 278.959Z" fill="#7762EF"/>
<path d="M135.366 279.152L134.609 278.718C133.23 278.074 132.123 276.962 131.486 275.58C130.52 273.124 130.52 270.394 131.486 267.938C132.462 266.638 133.538 265.417 134.706 264.286C135.973 262.381 136.629 260.137 136.589 257.85C136.561 255.61 136.712 253.372 137.04 251.157C137.844 247.408 138.907 243.836 141.868 241.423C146.488 237.561 155.776 235.26 160.814 239.572C161.731 240.361 161.908 240.988 163.148 241.181C164.639 241.24 166.093 241.666 167.381 242.42C168.991 243.369 171.051 244.721 170.81 246.893C170.344 248.768 169.197 250.403 167.59 251.479C167.038 251.759 166.423 251.897 165.804 251.881C163.84 251.881 162.214 250.642 160.283 250.851C159.334 250.964 158.468 251.443 157.868 252.186C157.16 253.055 157.257 254.246 156.452 255.05C155.148 256.338 153.12 256.225 151.623 257.062C151.352 257.178 151.118 257.368 150.947 257.609C150.822 257.863 150.766 258.146 150.786 258.429L150.689 260.875C149.933 260.537 149.852 259.443 149.208 258.896C148.881 258.661 148.482 258.546 148.08 258.573C147.678 258.599 147.297 258.765 147.003 259.041C146.426 259.613 146.053 260.359 145.941 261.164C145.843 262.155 145.987 263.154 146.359 264.077C146.874 265.685 148.291 267.214 149.434 266.12C150.271 267.343 149.434 269.338 149.337 270.77C149.337 271.864 149.337 273.988 150.351 274.76C151.365 275.532 152.782 274.921 152.846 276.626C152.788 277.41 152.445 278.146 151.882 278.694C151.318 279.242 150.573 279.566 149.788 279.603C148.219 279.657 146.657 279.383 145.2 278.798C143.73 278.229 142.116 278.15 140.597 278.573C139.781 279.047 138.918 279.436 138.021 279.731C137.096 279.847 136.159 279.642 135.366 279.152Z" fill="#383493"/>
<path d="M222.209 306.182H90.8145V370.636H222.209V306.182Z" fill="#F8D846"/>
<path d="M109.277 314.854L110.452 317.22L113.076 317.59L111.176 319.44L111.627 322.046L109.277 320.824L106.943 322.046L107.394 319.44L105.494 317.59L108.118 317.22L109.277 314.854Z" fill="#FFF0B0"/>
<path d="M120.703 314.854L121.862 317.22L124.485 317.59L122.586 319.44L123.037 322.046L120.703 320.824L118.352 322.046L118.803 319.44L116.92 317.59L119.528 317.22L120.703 314.854Z" fill="#FFF0B0"/>
<path d="M132.117 314.854L133.292 317.22L135.899 317.59L134.016 319.44L134.451 322.046L132.117 320.824L129.783 322.046L130.217 319.44L128.334 317.59L130.942 317.22L132.117 314.854Z" fill="#FFF0B0"/>
<path d="M143.529 314.854L144.704 317.22L147.311 317.59L145.428 319.44L145.879 322.046L143.529 320.824L141.195 322.046L141.645 319.44L139.746 317.59L142.37 317.22L143.529 314.854Z" fill="#FFF0B0"/>
<path d="M154.959 314.854L156.118 317.22L158.742 317.59L156.842 319.44L157.293 322.046L154.959 320.824L152.609 322.046L153.06 319.44L151.16 317.59L153.784 317.22L154.959 314.854Z" fill="#FFF0B0"/>
<g opacity="0.66">
<path d="M207.031 357.459H179.748" stroke="#EAA221" stroke-width="2.12" stroke-linecap="round" stroke-linejoin="round"/>
<path d="M125.228 347.741H106.766" stroke="#EAA221" stroke-width="2.12" stroke-linecap="round" stroke-linejoin="round"/>
<path d="M207.028 347.741H133.227" stroke="#EAA221" stroke-width="2.12" stroke-linecap="round" stroke-linejoin="round"/>
<path d="M207.03 338.022H106.766" stroke="#EAA221" stroke-width="2.12" stroke-linecap="round" stroke-linejoin="round"/>
<path d="M137.671 328.305H106.766" stroke="#EAA221" stroke-width="2.12" stroke-linecap="round" stroke-linejoin="round"/>
<path d="M207.03 328.305H145.381" stroke="#EAA221" stroke-width="2.12" stroke-linecap="round" stroke-linejoin="round"/>
<path d="M171.763 357.459H106.766" stroke="#EAA221" stroke-width="2.12" stroke-linecap="round" stroke-linejoin="round"/>
</g>
<path d="M87.5605 331.716C88.2049 330.498 88.7852 329.246 89.299 327.967C89.4277 327.662 89.637 327.275 89.975 327.292C90.1583 327.334 90.3224 327.436 90.4418 327.581C90.6802 327.858 90.8065 328.214 90.7959 328.579C91.0298 329.796 91.0298 331.046 90.7959 332.263" fill="#F4B5C7"/>
<path d="M89.5743 342.126C91.094 342.098 92.5405 341.468 93.5955 340.374C94.6506 339.28 95.2277 337.812 95.1999 336.293C95.1722 334.774 94.5418 333.328 93.4476 332.274C92.3533 331.219 90.8848 330.642 89.365 330.67C86.9988 330.67 86.4837 333.292 86.5481 336.446C86.6125 339.6 87.2081 342.174 89.5743 342.126Z" fill="#FFB9B0"/>
<path d="M201.107 302.771C199.883 303.415 198.628 303.994 197.356 304.509C197.034 304.638 196.664 304.847 196.68 305.185C196.723 305.368 196.825 305.532 196.97 305.651C197.247 305.89 197.603 306.016 197.968 306.005C199.185 306.213 200.431 306.186 201.638 305.925" fill="#F4B5C7"/>
<path d="M211.522 304.798C211.42 306.269 210.757 307.645 209.669 308.64C208.58 309.636 207.151 310.175 205.676 310.146C204.201 310.117 202.794 309.522 201.746 308.485C200.697 307.447 200.088 306.047 200.045 304.573C200.045 302.207 202.669 301.709 205.84 301.757C209.011 301.805 211.57 302.417 211.522 304.798Z" fill="#FFB9B0"/>
<path d="M200.62 155.088H95.7847C94.2824 155.088 93.0645 156.305 93.0645 157.807V185.143C93.0645 186.645 94.2824 187.862 95.7847 187.862H200.62C202.123 187.862 203.341 186.645 203.341 185.143V157.807C203.341 156.305 202.123 155.088 200.62 155.088Z" fill="#DDD6FF"/>
<path d="M117.918 161.361H100.164V183.774H117.918V161.361Z" stroke="white" stroke-width="0.93" stroke-miterlimit="10"/>
<path d="M100.164 166.415H117.918" stroke="white" stroke-width="0.93" stroke-miterlimit="10"/>
<path d="M100.164 172.577H117.918" stroke="white" stroke-width="0.93" stroke-miterlimit="10"/>
<path d="M112.414 183.774H105.67V178.642C105.674 177.749 106.032 176.893 106.666 176.263C107.299 175.633 108.156 175.279 109.05 175.279C109.942 175.279 110.798 175.634 111.429 176.264C112.06 176.895 112.414 177.75 112.414 178.642V183.774Z" stroke="white" stroke-width="0.93" stroke-miterlimit="10"/>
<path d="M106.01 161.362V172.577" stroke="white" stroke-width="0.93" stroke-miterlimit="10"/>
<path d="M112.127 161.361V172.576" stroke="white" stroke-width="0.93" stroke-miterlimit="10"/>
<path d="M103.48 159.174H114.603" stroke="white" stroke-width="0.93" stroke-miterlimit="10"/>
<path d="M128.317 160.493L129.846 163.582L133.275 164.081L130.796 166.494L131.391 169.905L128.317 168.297L125.259 169.905L125.838 166.494L123.359 164.081L126.788 163.582L128.317 160.493Z" fill="#FFF0B0"/>
<path d="M143.561 160.493L145.09 163.582L148.519 164.081L146.04 166.494L146.619 169.905L143.561 168.297L140.503 169.905L141.082 166.494L138.604 164.081L142.032 163.582L143.561 160.493Z" fill="#FFF0B0"/>
<path d="M158.804 160.493L160.333 163.582L163.745 164.081L161.267 166.494L161.862 169.905L158.804 168.297L155.729 169.905L156.325 166.494L153.83 164.081L157.259 163.582L158.804 160.493Z" fill="#FFF0B0"/>
<path d="M174.03 160.493L175.559 163.582L178.988 164.081L176.509 166.494L177.088 169.905L174.03 168.297L170.972 169.905L171.551 166.494L169.072 164.081L172.501 163.582L174.03 160.493Z" fill="#FFF0B0"/>
<path d="M189.276 160.493L190.805 163.582L194.218 164.081L191.755 166.494L192.334 169.905L189.276 168.297L186.202 169.905L186.797 166.494L184.318 164.081L187.731 163.582L189.276 160.493Z" fill="#FFF0B0"/>
<path d="M123.359 173.943H150.965" stroke="white" stroke-width="0.93" stroke-miterlimit="10" stroke-linecap="round"/>
<path d="M154.49 173.943H182.079" stroke="white" stroke-width="0.93" stroke-miterlimit="10" stroke-linecap="round"/>
<path d="M184.928 173.943H194.215" stroke="white" stroke-width="0.93" stroke-miterlimit="10" stroke-linecap="round"/>
<path d="M123.359 178.24H158.787" stroke="white" stroke-width="0.93" stroke-miterlimit="10" stroke-linecap="round"/>
<path d="M123.359 182.471H194.216" stroke="white" stroke-width="0.93" stroke-miterlimit="10" stroke-linecap="round"/>
<path d="M161.268 178.24H194.217" stroke="white" stroke-width="0.93" stroke-miterlimit="10" stroke-linecap="round"/>
<path d="M561.923 61.4316H457.087C455.585 61.4316 454.367 62.649 454.367 64.1508V91.4866C454.367 92.9883 455.585 94.2057 457.087 94.2057H561.923C563.425 94.2057 564.643 92.9883 564.643 91.4866V64.1508C564.643 62.649 563.425 61.4316 561.923 61.4316Z" fill="#DDD6FF"/>
<path d="M479.219 67.7061H461.465V90.1186H479.219V67.7061Z" stroke="white" stroke-width="0.93" stroke-miterlimit="10"/>
<path d="M461.465 72.7588H479.219" stroke="white" stroke-width="0.93" stroke-miterlimit="10"/>
<path d="M461.465 78.9043H479.219" stroke="white" stroke-width="0.93" stroke-miterlimit="10"/>
<path d="M473.715 90.1494H466.971V84.9686C466.971 84.0725 467.327 83.2131 467.961 82.5795C468.595 81.9458 469.454 81.5898 470.351 81.5898C471.245 81.5941 472.1 81.952 472.731 82.5851C473.361 83.2183 473.715 84.0753 473.715 84.9686V90.1494Z" stroke="white" stroke-width="0.93" stroke-miterlimit="10"/>
<path d="M467.307 67.7051V78.9033" stroke="white" stroke-width="0.93" stroke-miterlimit="10"/>
<path d="M473.424 67.7061V78.9043" stroke="white" stroke-width="0.93" stroke-miterlimit="10"/>
<path d="M464.781 65.5176H475.904" stroke="white" stroke-width="0.93" stroke-miterlimit="10"/>
<path d="M489.618 66.8213L491.147 69.9265L494.576 70.4253L492.097 72.8387L492.676 76.2497L489.618 74.6407L486.56 76.2497L487.139 72.8387L484.66 70.4253L488.089 69.9265L489.618 66.8213Z" fill="#FFF0B0"/>
<path d="M504.858 66.8213L506.387 69.9265L509.816 70.4253L507.337 72.8387L507.916 76.2497L504.858 74.6407L501.784 76.2497L502.379 72.8387L499.9 70.4253L503.329 69.9265L504.858 66.8213Z" fill="#FFF0B0"/>
<path d="M520.087 66.8213L521.616 69.9265L525.044 70.4253L522.565 72.8387L523.161 76.2497L520.087 74.6407L517.028 76.2497L517.608 72.8387L515.129 70.4253L518.557 69.9265L520.087 66.8213Z" fill="#FFF0B0"/>
<path d="M535.333 66.8213L536.862 69.9265L540.29 70.4253L537.812 72.8387L538.391 76.2497L535.333 74.6407L532.274 76.2497L532.854 72.8387L530.375 70.4253L533.804 69.9265L535.333 66.8213Z" fill="#FFF0B0"/>
<path d="M550.557 66.8213L552.103 69.9265L555.515 70.4253L553.036 72.8387L553.632 76.2497L550.557 74.6407L547.499 76.2497L548.078 72.8387L545.6 70.4253L549.028 69.9265L550.557 66.8213Z" fill="#FBFAFF"/>
<path d="M484.66 80.2871H512.265" stroke="white" stroke-width="0.93" stroke-miterlimit="10" stroke-linecap="round"/>
<path d="M515.773 80.2871H543.379" stroke="white" stroke-width="0.93" stroke-miterlimit="10" stroke-linecap="round"/>
<path d="M546.229 80.2871H555.516" stroke="white" stroke-width="0.93" stroke-miterlimit="10" stroke-linecap="round"/>
<path d="M484.66 84.584H520.088" stroke="white" stroke-width="0.93" stroke-miterlimit="10" stroke-linecap="round"/>
<path d="M484.66 88.8145H555.516" stroke="white" stroke-width="0.93" stroke-miterlimit="10" stroke-linecap="round"/>
<path d="M522.566 84.584H555.516" stroke="white" stroke-width="0.93" stroke-miterlimit="10" stroke-linecap="round"/>
<path d="M116.695 241.39C116.695 241.804 116.572 242.209 116.342 242.552C116.112 242.896 115.785 243.165 115.403 243.323C115.021 243.481 114.6 243.523 114.194 243.442C113.788 243.361 113.415 243.162 113.123 242.869C112.83 242.577 112.631 242.204 112.55 241.799C112.469 241.393 112.511 240.972 112.669 240.59C112.827 240.208 113.096 239.881 113.44 239.651C113.784 239.421 114.188 239.299 114.602 239.299C115.157 239.299 115.69 239.519 116.082 239.911C116.474 240.304 116.695 240.836 116.695 241.39Z" fill="#D3BBF9"/>
<path d="M178.667 72.7254C178.667 73.1391 178.545 73.5435 178.315 73.8875C178.085 74.2314 177.758 74.4995 177.376 74.6578C176.993 74.8161 176.573 74.8576 176.167 74.7769C175.761 74.6961 175.388 74.4969 175.095 74.2044C174.803 73.9119 174.603 73.5392 174.523 73.1335C174.442 72.7277 174.483 72.3072 174.642 71.925C174.8 71.5428 175.068 71.2161 175.412 70.9863C175.757 70.7565 176.161 70.6338 176.575 70.6338C177.13 70.6338 177.662 70.8542 178.055 71.2464C178.447 71.6387 178.667 72.1707 178.667 72.7254Z" fill="#D3BBF9"/>
<path d="M291.97 2.14143C291.97 2.55511 291.847 2.9595 291.618 3.30346C291.388 3.64743 291.061 3.91552 290.678 4.07383C290.296 4.23214 289.875 4.27356 289.469 4.19285C289.064 4.11215 288.691 3.91294 288.398 3.62042C288.105 3.3279 287.906 2.95522 287.825 2.54948C287.745 2.14375 287.786 1.72319 287.944 1.341C288.103 0.958805 288.371 0.63213 288.715 0.4023C289.059 0.17247 289.464 0.0498047 289.878 0.0498047C290.433 0.0498047 290.965 0.27017 291.357 0.662424C291.75 1.05468 291.97 1.5867 291.97 2.14143Z" fill="#D3BBF9"/>
<path d="M396.695 13.1307C396.695 13.5444 396.572 13.9488 396.342 14.2927C396.112 14.6367 395.785 14.9048 395.403 15.0631C395.021 15.2214 394.6 15.2628 394.194 15.1821C393.788 15.1014 393.415 14.9022 393.123 14.6097C392.83 14.3172 392.631 13.9445 392.55 13.5387C392.469 13.133 392.511 12.7125 392.669 12.3303C392.827 11.9481 393.096 11.6214 393.44 11.3916C393.784 11.1617 394.188 11.0391 394.602 11.0391C395.157 11.0391 395.69 11.2594 396.082 11.6517C396.474 12.0439 396.695 12.5759 396.695 13.1307Z" fill="#D3BBF9"/>
<path d="M582.685 126.319C582.685 126.734 582.562 127.139 582.331 127.483C582.101 127.827 581.773 128.095 581.39 128.253C581.006 128.411 580.585 128.451 580.178 128.369C579.772 128.287 579.399 128.087 579.107 127.792C578.815 127.498 578.617 127.124 578.538 126.717C578.459 126.311 578.503 125.889 578.664 125.508C578.825 125.126 579.095 124.8 579.442 124.572C579.788 124.344 580.194 124.224 580.609 124.228C581.161 124.232 581.689 124.454 582.078 124.846C582.467 125.238 582.685 125.767 582.685 126.319Z" fill="#D3BBF9"/>
<path d="M142.482 135.378V141.17" stroke="#D3BBF9" stroke-width="1.02" stroke-linecap="round" stroke-linejoin="round"/>
<path d="M145.365 138.274H139.586" stroke="#D3BBF9" stroke-width="1.02" stroke-linecap="round" stroke-linejoin="round"/>
<path d="M207.111 232.929V238.705" stroke="#D3BBF9" stroke-width="1.02" stroke-linecap="round" stroke-linejoin="round"/>
<path d="M210.007 235.823H204.229" stroke="#D3BBF9" stroke-width="1.02" stroke-linecap="round" stroke-linejoin="round"/>
<path d="M494.252 110.986V116.762" stroke="#D3BBF9" stroke-width="1.02" stroke-linecap="round" stroke-linejoin="round"/>
<path d="M497.152 113.866H491.373" stroke="#D3BBF9" stroke-width="1.02" stroke-linecap="round" stroke-linejoin="round"/>
<path d="M576.891 268.146V273.939" stroke="#D3BBF9" stroke-width="1.02" stroke-linecap="round" stroke-linejoin="round"/>
<path d="M579.775 271.043H573.996" stroke="#D3BBF9" stroke-width="1.02" stroke-linecap="round" stroke-linejoin="round"/>
<path d="M448.924 130.631V136.407" stroke="#D3BBF9" stroke-width="1.02" stroke-linecap="round" stroke-linejoin="round"/>
<path d="M451.808 133.527H446.029" stroke="#D3BBF9" stroke-width="1.02" stroke-linecap="round" stroke-linejoin="round"/>
<path d="M463.301 190.612L458.746 193.041L461.016 187.12" fill="#7762EF"/>
<path d="M477.433 183.034C477.433 184.944 476.866 186.81 475.805 188.398C474.744 189.985 473.236 191.223 471.471 191.953C469.706 192.684 467.764 192.875 465.891 192.503C464.017 192.13 462.297 191.211 460.946 189.861C459.595 188.511 458.675 186.79 458.303 184.918C457.93 183.045 458.121 181.104 458.852 179.34C459.583 177.576 460.821 176.069 462.409 175.008C463.998 173.947 465.865 173.381 467.775 173.381C470.336 173.381 472.793 174.398 474.604 176.208C476.415 178.019 477.433 180.474 477.433 183.034Z" fill="#7762EF"/>
<path d="M466.086 187.652C468.179 187.652 470.32 187.652 472.235 187.652C472.847 187.652 473.378 186.638 472.638 186.333C472.97 186.22 473.247 185.984 473.41 185.673C473.444 185.592 473.461 185.505 473.461 185.417C473.461 185.329 473.443 185.242 473.408 185.161C473.374 185.08 473.323 185.006 473.26 184.945C473.197 184.884 473.122 184.836 473.04 184.804C473.764 184.981 474.054 183.839 473.475 183.453C473.799 183.215 474.023 182.865 474.102 182.471C474.136 182.277 474.111 182.077 474.031 181.896C473.951 181.716 473.819 181.563 473.652 181.458C473.415 181.35 473.154 181.306 472.895 181.329H470.271C470.618 179.974 470.481 178.54 469.885 177.274C469.676 176.904 469.112 176.47 468.678 176.76C468.243 177.049 468.372 177.661 468.388 178.079C468.423 178.931 468.218 179.777 467.797 180.519C467.376 181.261 466.756 181.87 466.006 182.278C466.006 182.278 466.102 185.802 466.086 187.652Z" fill="#FEFEFE"/>
<path d="M465.329 182.183H462.158V187.637H465.329V182.183Z" fill="#FEFEFE"/>
<g opacity="0.3">
<path d="M424.41 64.8587L417.424 68.5754L420.917 59.501" fill="#5C37D4"/>
<path d="M431.317 68.0118C439.469 68.0118 446.077 61.4063 446.077 53.2579C446.077 45.1095 439.469 38.5039 431.317 38.5039C423.165 38.5039 416.557 45.1095 416.557 53.2579C416.557 61.4063 423.165 68.0118 431.317 68.0118Z" fill="#5C37D4"/>
<path d="M428.679 60.3213C431.898 60.3213 435.118 60.4178 438.112 60.2086C439.045 60.2086 439.85 58.5997 438.723 58.1974C439.232 58.0159 439.652 57.6477 439.898 57.1677C439.95 57.0434 439.976 56.9099 439.974 56.7753C439.973 56.6406 439.944 56.5077 439.89 56.3844C439.836 56.2611 439.758 56.1501 439.659 56.058C439.561 55.9659 439.445 55.8946 439.319 55.8484C440.446 56.1219 440.928 54.3521 440.011 53.7889C440.485 53.4052 440.814 52.8719 440.945 52.2766C441.012 51.9714 440.983 51.6529 440.862 51.3648C440.741 51.0767 440.534 50.8331 440.268 50.6676C439.905 50.5062 439.506 50.4398 439.109 50.4745H435.102C435.623 48.3975 435.413 46.2043 434.506 44.264C434.184 43.717 433.331 43.0412 432.639 43.4757C431.947 43.9101 432.188 44.8593 432.22 45.4868C432.263 46.7917 431.944 48.083 431.299 49.2185C430.654 50.354 429.709 51.2897 428.566 51.9226C428.566 51.9226 428.711 57.4895 428.679 60.3213Z" fill="#FEFEFE"/>
<path d="M427.517 51.9551H422.656V60.3216H427.517V51.9551Z" fill="#FEFEFE"/>
</g>
<g opacity="0.3">
<path d="M166.016 102.137L171.07 104.84L168.543 98.2598" fill="#5C37D4"/>
<path d="M161.009 104.438C166.92 104.438 171.713 99.6476 171.713 93.7385C171.713 87.8294 166.92 83.0391 161.009 83.0391C155.097 83.0391 150.305 87.8294 150.305 93.7385C150.305 99.6476 155.097 104.438 161.009 104.438Z" fill="#5C37D4"/>
<path d="M162.925 98.8554C160.591 98.8554 158.225 98.8554 156.084 98.8554C155.408 98.8554 154.813 97.7291 155.65 97.3913C155.28 97.2654 154.973 96.9997 154.797 96.6511C154.722 96.4698 154.723 96.2662 154.798 96.0853C154.874 95.9043 155.018 95.7606 155.199 95.6858C154.394 95.895 154.072 94.6078 154.716 94.1895C154.364 93.9171 154.119 93.5299 154.024 93.0954C153.987 92.8794 154.014 92.6572 154.103 92.4567C154.192 92.2563 154.338 92.0867 154.523 91.9691C154.787 91.8549 155.073 91.8053 155.36 91.8243H158.273C157.89 90.3193 158.037 88.728 158.692 87.3193C158.933 86.9171 159.561 86.4344 160.044 86.7401C160.527 87.0458 160.382 87.7537 160.366 88.2042C160.326 89.1529 160.553 90.0938 161.019 90.921C161.485 91.7481 162.173 92.4288 163.006 92.8862C163.006 92.8862 162.893 96.812 162.925 98.8554Z" fill="#FEFEFE"/>
<path d="M163.764 98.8389H167.289V92.7732H163.764V98.8389Z" fill="#FEFEFE"/>
</g>
<g opacity="0.3">
<path d="M257.346 60.8826L264.444 64.6636L260.887 55.4443" fill="#5C37D4"/>
<path d="M250.328 64.0853C258.613 64.0853 265.33 57.3717 265.33 49.09C265.33 40.8083 258.613 34.0947 250.328 34.0947C242.043 34.0947 235.326 40.8083 235.326 49.09C235.326 57.3717 242.043 64.0853 250.328 64.0853Z" fill="#5C37D4"/>
<path d="M244.001 44.9879C244.689 44.3021 245.621 43.917 246.593 43.917C247.564 43.917 248.496 44.3021 249.184 44.9879L250.118 45.9372L251.099 45.1005C251.791 44.4199 252.725 44.0418 253.695 44.0493C254.666 44.0569 255.594 44.4495 256.274 45.1407C256.955 45.832 257.334 46.7654 257.326 47.7354C257.319 48.7055 256.926 49.6329 256.234 50.3135L252.709 53.7727C252.159 54.3063 251.455 54.655 250.697 54.7702C250.115 54.8692 249.517 54.8241 248.955 54.639C248.394 54.4539 247.887 54.1344 247.478 53.7084L243.985 50.1365C243.311 49.4481 242.935 48.5222 242.938 47.5589C242.941 46.5956 243.323 45.6721 244.001 44.9879Z" fill="white"/>
</g>
<g opacity="0.3">
<path d="M502.446 162.714L497.488 165.353L499.967 158.917" fill="#5C37D4"/>
<path d="M517.817 154.508C517.82 156.58 517.208 158.607 516.059 160.331C514.909 162.056 513.274 163.401 511.359 164.196C509.445 164.991 507.337 165.201 505.304 164.799C503.27 164.397 501.401 163.4 499.934 161.936C498.467 160.472 497.468 158.606 497.062 156.573C496.656 154.541 496.863 152.434 497.655 150.519C498.448 148.605 499.791 146.968 501.515 145.816C503.238 144.665 505.265 144.05 507.338 144.05C508.713 144.048 510.076 144.317 511.347 144.841C512.618 145.366 513.773 146.136 514.747 147.107C515.72 148.079 516.492 149.232 517.019 150.502C517.546 151.772 517.817 153.133 517.817 154.508Z" fill="#5C37D4"/>
<path d="M511.764 151.627C511.528 151.387 511.246 151.197 510.935 151.067C510.624 150.937 510.29 150.87 509.953 150.87C509.616 150.87 509.283 150.937 508.972 151.067C508.661 151.197 508.379 151.387 508.142 151.627L507.499 152.287L506.823 151.627C506.338 151.151 505.684 150.888 505.005 150.894C504.326 150.9 503.677 151.175 503.201 151.659C502.725 152.144 502.461 152.797 502.467 153.476C502.473 154.155 502.749 154.804 503.233 155.28L505.728 157.725C505.964 157.963 506.245 158.151 506.555 158.279C506.864 158.408 507.196 158.474 507.531 158.474C507.866 158.474 508.198 158.408 508.507 158.279C508.816 158.151 509.097 157.963 509.334 157.725L511.78 155.231C512.017 154.994 512.204 154.712 512.331 154.403C512.458 154.093 512.523 153.761 512.522 153.426C512.52 153.091 512.452 152.76 512.322 152.451C512.192 152.142 512.003 151.862 511.764 151.627Z" fill="white"/>
</g>
<path d="M614.17 191.192H527.91C526.363 191.192 525.109 192.446 525.109 193.992V217.466C525.109 219.013 526.363 220.266 527.91 220.266H614.17C615.717 220.266 616.971 219.013 616.971 217.466V193.992C616.971 192.446 615.717 191.192 614.17 191.192Z" fill="#7762EF"/>
<path d="M534.396 214.457C534.396 214.457 531.82 232.815 531.82 231.705C531.82 230.595 544.826 216.018 544.826 216.018L534.396 214.457Z" fill="#7762EF"/>
<path d="M603.724 202.067L598.799 202.872L602.421 206.282L601.648 211.206L606.026 208.825L610.469 211.077L609.551 206.186L613.076 202.646L608.135 202.003L605.865 197.578L603.724 202.067Z" fill="#FFF0B0"/>
<path d="M586.277 202.067L581.367 202.872L584.989 206.282L584.216 211.206L588.594 208.825L593.037 211.077L592.12 206.186L595.629 202.646L590.687 202.003L588.417 197.578L586.277 202.067Z" fill="#FFF0B0"/>
<path d="M568.845 202.067L563.92 202.872L567.542 206.282L566.769 211.206L571.147 208.825L575.59 211.077L574.672 206.186L578.197 202.646L573.256 202.003L570.986 197.578L568.845 202.067Z" fill="#FFF0B0"/>
<path d="M550.11 206.282L549.322 211.206L553.539 208.921L553.716 208.825L558.143 211.077L557.241 206.186L560.766 202.662L555.825 202.019L553.539 197.578L551.398 202.067L546.473 202.872L550.11 206.282Z" fill="#FFF0B0"/>
<path d="M533.965 202.067L529.039 202.872L532.661 206.282L531.888 211.206L536.266 208.825L540.709 211.077L539.807 206.186L543.317 202.646L538.375 202.003L536.105 197.578L533.965 202.067Z" fill="#FFF0B0"/>
</svg>
