<svg width="24" height="24" viewBox="0 0 24 24" fill="none" xmlns="http://www.w3.org/2000/svg">
<mask id="mask0_308_9718" style="mask-type:luminance" maskUnits="userSpaceOnUse" x="14" y="2" width="9" height="9">
<path fill-rule="evenodd" clip-rule="evenodd" d="M14.3535 2H22.8925V10.5328H14.3535V2Z" fill="white"/>
</mask>
<g mask="url(#mask0_308_9718)">
<path fill-rule="evenodd" clip-rule="evenodd" d="M22.1422 10.5328C21.7652 10.5328 21.4412 10.2498 21.3982 9.86681C21.0192 6.49081 18.3972 3.87081 15.0202 3.49581C14.6092 3.44981 14.3122 3.07981 14.3582 2.66781C14.4032 2.25681 14.7702 1.95381 15.1862 2.00581C19.2642 2.45881 22.4312 5.62181 22.8882 9.69881C22.9342 10.1108 22.6382 10.4818 22.2272 10.5278C22.1992 10.5308 22.1702 10.5328 22.1422 10.5328Z" fill="#2958FF"/>
</g>
<path fill-rule="evenodd" clip-rule="evenodd" d="M18.6034 10.5437C18.2514 10.5437 17.9384 10.2957 17.8684 9.93766C17.5804 8.45766 16.4394 7.31666 14.9614 7.02966C14.5544 6.95066 14.2894 6.55766 14.3684 6.15066C14.4474 5.74366 14.8474 5.47766 15.2474 5.55766C17.3284 5.96166 18.9354 7.56766 19.3404 9.64966C19.4194 10.0577 19.1544 10.4507 18.7484 10.5297C18.6994 10.5387 18.6514 10.5437 18.6034 10.5437Z" fill="#2958FF"/>
<mask id="mask1_308_9718" style="mask-type:luminance" maskUnits="userSpaceOnUse" x="2" y="1" width="21" height="22">
<path fill-rule="evenodd" clip-rule="evenodd" d="M2.00098 1.99951H22.5012V22.5H2.00098V1.99951Z" fill="white"/>
</mask>
<g mask="url(#mask1_308_9718)">
<path fill-rule="evenodd" clip-rule="evenodd" d="M4.36003 5.06116C4.36203 5.06116 4.31203 5.11316 4.24903 5.17516C4.00703 5.41016 3.50603 5.89916 3.50103 6.92216C3.49303 8.35316 4.43403 11.0102 8.96503 15.5402C13.474 20.0482 16.127 21.0002 17.562 21.0002H17.583C18.606 20.9942 19.094 20.4932 19.329 20.2522C19.4 20.1792 19.458 20.1242 19.499 20.0912C20.496 19.0882 21.006 18.3432 21.001 17.8642C20.995 17.3762 20.388 16.8002 19.549 16.0012C19.282 15.7482 18.992 15.4712 18.686 15.1652C17.892 14.3742 17.501 14.5092 16.636 14.8132C15.441 15.2322 13.804 15.8062 11.253 13.2532C8.70103 10.7022 9.27303 9.06516 9.69003 7.86916C9.99203 7.00516 10.13 6.61216 9.33703 5.81816C9.02703 5.50816 8.74803 5.21416 8.49103 4.94416C7.69703 4.11016 7.12403 3.50716 6.63903 3.50016H6.63103C6.15203 3.50016 5.40803 4.01216 4.35503 5.06516C4.35803 5.06216 4.35903 5.06116 4.36003 5.06116ZM17.5621 22.5001C15.0701 22.5001 11.8211 20.5161 7.90506 16.6011C3.97306 12.6701 1.98606 9.41105 2.00106 6.91405C2.01006 5.26405 2.87506 4.41905 3.20006 4.10205C3.21706 4.08105 3.27506 4.02405 3.29506 4.00405C4.73006 2.56905 5.71606 1.97905 6.65806 2.00005C7.77506 2.01505 8.57106 2.85205 9.57806 3.91105C9.82706 4.17205 10.0961 4.45705 10.3971 4.75705C11.8561 6.21705 11.4411 7.40805 11.1061 8.36405C10.7421 9.40705 10.4271 10.3071 12.3131 12.1931C14.1991 14.0791 15.0981 13.7641 16.1401 13.3971C17.0971 13.0631 18.2851 12.6451 19.7471 14.1051C20.0441 14.4021 20.3241 14.6681 20.5841 14.9151C21.6471 15.9271 22.4871 16.7261 22.5011 17.8461C22.5121 18.8001 21.9321 19.7741 20.5001 21.2061L19.8661 20.7761L20.4031 21.2991C20.0861 21.6241 19.2431 22.4901 17.5921 22.5001H17.5621Z" fill="#2958FF"/>
</g>
</svg>
