<svg width="18" height="19" viewBox="0 0 18 19" fill="none" xmlns="http://www.w3.org/2000/svg">
<path fill-rule="evenodd" clip-rule="evenodd" d="M1.6875 9.5C1.6875 7.5606 2.45792 5.70064 3.82929 4.32929C5.20064 2.95792 7.0606 2.1875 9 2.1875C10.9394 2.1875 12.7993 2.95792 14.1707 4.32929C15.5421 5.70064 16.3125 7.5606 16.3125 9.5C16.3125 11.4394 15.5421 13.2993 14.1707 14.6707C12.7993 16.0421 10.9394 16.8125 9 16.8125C7.0606 16.8125 5.20064 16.0421 3.82929 14.6707C2.45792 13.2993 1.6875 11.4394 1.6875 9.5ZM9 0.5C6.61305 0.5 4.32387 1.44821 2.63604 3.13604C0.948212 4.82387 0 7.11305 0 9.5C0 11.8869 0.948212 14.1762 2.63604 15.864C4.32387 17.5517 6.61305 18.5 9 18.5C11.3869 18.5 13.6762 17.5517 15.364 15.864C17.0517 14.1762 18 11.8869 18 9.5C18 7.11305 17.0517 4.82387 15.364 3.13604C13.6762 1.44821 11.3869 0.5 9 0.5ZM9.5625 5.84375C9.5625 5.61998 9.4736 5.40536 9.31537 5.24713C9.15714 5.0889 8.94252 5 8.71875 5C8.49498 5 8.28036 5.0889 8.12213 5.24713C7.9639 5.40536 7.875 5.61998 7.875 5.84375V9.78125C7.87503 9.94975 7.92554 10.1144 8.01997 10.2539C8.11441 10.3935 8.24847 10.5016 8.40487 10.5642L11.2174 11.6892C11.4234 11.7645 11.6506 11.7565 11.8509 11.6671C12.0511 11.5777 12.2087 11.4138 12.2902 11.2102C12.3716 11.0065 12.3706 10.7792 12.2874 10.5763C12.2041 10.3734 12.045 10.2109 11.844 10.1233L9.5625 9.20975V5.84375Z" fill="#CAC9C9"/>
</svg>
