<svg width="37" height="36" viewBox="0 0 37 36" fill="none" xmlns="http://www.w3.org/2000/svg">
<path d="M31.4375 3.9375H5.5625C4.94023 3.9375 4.4375 4.44023 4.4375 5.0625V30.9375C4.4375 31.5598 4.94023 32.0625 5.5625 32.0625H31.4375C32.0598 32.0625 32.5625 31.5598 32.5625 30.9375V5.0625C32.5625 4.44023 32.0598 3.9375 31.4375 3.9375ZM28.1891 12.1465H25.9426C24.1812 12.1465 23.8402 12.9832 23.8402 14.2137V16.9242H28.0449L27.4965 21.1676H23.8402V32.0625H19.4563V21.1711H15.7895V16.9242H19.4563V13.7953C19.4563 10.1637 21.6746 8.18438 24.916 8.18438C26.4699 8.18438 27.8023 8.30039 28.1926 8.35313V12.1465H28.1891Z" fill="url(#paint0_linear_297_69631)"/>
<defs>
<linearGradient id="paint0_linear_297_69631" x1="32.5625" y1="17.924" x2="4.4375" y2="17.924" gradientUnits="userSpaceOnUse">
<stop stop-color="#EAEAEA"/>
<stop offset="1" stop-color="white"/>
</linearGradient>
</defs>
</svg>
