<svg width="20" height="21" viewBox="0 0 20 21" fill="none" xmlns="http://www.w3.org/2000/svg">
<path fill-rule="evenodd" clip-rule="evenodd" d="M13.8357 5.95704C12.8032 4.97232 11.4253 4.43587 9.99966 4.45792C7.3909 4.45792 5.17528 6.21792 4.3853 8.58785C3.96643 9.82977 3.96643 11.1746 4.3853 12.4165H4.38898C5.18263 14.7828 7.39457 16.5428 10.0033 16.5428C11.35 16.5428 12.5061 16.1983 13.4021 15.5899V15.5874C14.4566 14.8893 15.1768 13.7907 15.4009 12.5488H9.99966V8.69808H19.4316C19.5492 9.36681 19.6043 10.0502 19.6043 10.73C19.6043 13.7714 18.5174 16.3428 16.6261 18.0844L16.6281 18.086C14.971 19.6145 12.6966 20.5 9.99966 20.5C6.21879 20.5 2.76125 18.3689 1.06372 14.9922C-0.354572 12.1666 -0.354572 8.83771 1.06372 6.01215C2.76125 2.63178 6.21879 0.500674 9.99966 0.500674C12.4835 0.471279 14.8828 1.40456 16.6906 3.10209L13.8357 5.95704Z" fill="url(#paint0_linear_460_9)"/>
<defs>
<linearGradient id="paint0_linear_460_9" x1="19.6043" y1="10.4459" x2="-5.75042e-08" y2="10.4459" gradientUnits="userSpaceOnUse">
<stop stop-color="#EAEAEA"/>
<stop offset="1" stop-color="white"/>
</linearGradient>
</defs>
</svg>
