<svg width="18" height="19" viewBox="0 0 18 19" fill="none" xmlns="http://www.w3.org/2000/svg">
<path d="M17.9606 14.4467C17.9097 14.2933 17.5858 14.0673 16.9891 13.7693C16.8274 13.6753 16.5971 13.5477 16.2991 13.3857C16.0008 13.2237 15.73 13.0745 15.4873 12.9381C15.2441 12.8018 15.0162 12.6697 14.8033 12.542C14.7693 12.5165 14.6627 12.442 14.4838 12.3181C14.3046 12.1947 14.1535 12.103 14.0297 12.0432C13.9062 11.9838 13.7847 11.9539 13.6653 11.9539C13.4949 11.9539 13.2821 12.0754 13.0265 12.3181C12.7709 12.5612 12.5364 12.8252 12.3235 13.111C12.1105 13.3966 11.8846 13.6606 11.6462 13.9035C11.4075 14.1465 11.2113 14.2679 11.0581 14.2679C10.9811 14.2679 10.8852 14.2464 10.7703 14.2041C10.6554 14.1615 10.568 14.125 10.508 14.0956C10.4485 14.0656 10.3465 14.0061 10.2015 13.9163C10.0562 13.8268 9.97547 13.7778 9.95845 13.7693C8.79091 13.1214 7.78958 12.3799 6.95428 11.545C6.11925 10.7095 5.37767 9.70828 4.72998 8.5406C4.72147 8.52354 4.67235 8.44254 4.58293 8.29774C4.49338 8.1528 4.4337 8.05066 4.40387 7.99084C4.37405 7.93124 4.33783 7.84384 4.29529 7.72881C4.25276 7.61378 4.2314 7.51796 4.2314 7.44117C4.2314 7.28785 4.35287 7.09173 4.59579 6.85308C4.83865 6.61455 5.10292 6.38861 5.38832 6.1757C5.67395 5.96279 5.93795 5.72834 6.18091 5.47276C6.42377 5.21704 6.54521 5.00409 6.54521 4.83367C6.54521 4.71443 6.51539 4.59286 6.45579 4.46932C6.39615 4.34552 6.30454 4.19444 6.18091 4.01538C6.05724 3.83641 5.98268 3.72998 5.95707 3.69572C5.82937 3.48281 5.69741 3.25486 5.56089 3.01195C5.42437 2.76908 5.27535 2.49836 5.11335 2.20011C4.95149 1.90199 4.82374 1.67179 4.72989 1.50988C4.43177 0.913419 4.20596 0.589418 4.05252 0.538463C3.99283 0.512896 3.90328 0.5 3.78408 0.5C3.55384 0.5 3.25348 0.542537 2.88278 0.627881C2.51195 0.71309 2.22014 0.802463 2.00705 0.896359C1.58091 1.07524 1.12926 1.59509 0.651942 2.45574C0.217299 3.25669 0 4.04946 0 4.83344C0 5.06337 0.0149105 5.28707 0.0447314 5.50459C0.0745524 5.72189 0.127836 5.96695 0.204627 6.23973C0.281284 6.51242 0.34312 6.71499 0.389866 6.8469C0.436658 6.9789 0.524016 7.21536 0.651897 7.55638C0.779599 7.8973 0.85639 8.106 0.881957 8.18271C1.18021 9.01796 1.5339 9.76362 1.94293 10.4199C2.61592 11.5107 3.53432 12.6381 4.69761 13.8015C5.86094 14.9647 6.98804 15.8831 8.07897 16.5564C8.73517 16.9653 9.48109 17.319 10.3162 17.6175C10.393 17.6429 10.6017 17.7195 10.9425 17.8477C11.2834 17.9754 11.5199 18.0628 11.6519 18.1097C11.784 18.1566 11.9866 18.2185 12.2591 18.2953C12.5321 18.3721 12.7769 18.4254 12.9942 18.4554C13.2117 18.4848 13.4354 18.5 13.6654 18.5C14.4493 18.5 15.2421 18.2826 16.0432 17.848C16.9038 17.3708 17.4235 16.9191 17.6025 16.4926C17.6966 16.2798 17.7857 15.9879 17.8709 15.617C17.9564 15.2464 17.9989 14.9461 17.9989 14.7159C17.9991 14.5962 17.9863 14.5069 17.9606 14.4467Z" fill="#CAC9C9"/>
</svg>
