<svg width="21" height="20" viewBox="0 0 21 20" fill="none" xmlns="http://www.w3.org/2000/svg">
<path opacity="0.4" d="M11.8445 1.11361L14.0709 5.58789C14.235 5.91205 14.548 6.13717 14.9091 6.18719L19.9102 6.91556C20.2023 6.95658 20.4673 7.11066 20.6464 7.34578C20.8234 7.5779 20.8994 7.87205 20.8564 8.1612C20.8214 8.40132 20.7084 8.62343 20.5353 8.79352L16.9116 12.3063C16.6465 12.5514 16.5265 12.9146 16.5905 13.2698L17.4827 18.2083C17.5777 18.8046 17.1826 19.3669 16.5905 19.48C16.3464 19.519 16.0964 19.478 15.8763 19.3659L11.4154 17.0417C11.0843 16.8746 10.6932 16.8746 10.3621 17.0417L5.90119 19.3659C5.35307 19.657 4.67393 19.4589 4.36886 18.9187C4.25584 18.7036 4.21583 18.4584 4.25284 18.2193L5.14503 13.2798C5.20904 12.9256 5.08802 12.5604 4.82396 12.3153L1.20018 8.80452C0.769088 8.38831 0.756085 7.70296 1.17117 7.27175C1.18018 7.26274 1.19018 7.25274 1.20018 7.24273C1.37222 7.06764 1.59827 6.95658 1.84232 6.92757L6.84339 6.1982C7.20347 6.14717 7.51654 5.92406 7.68157 5.59789L9.82803 1.11361C10.0191 0.729419 10.4152 0.490297 10.8453 0.500302H10.9793C11.3524 0.545325 11.6774 0.776443 11.8445 1.11361Z" fill="#FFC907"/>
<path d="M10.8602 16.9171C10.6665 16.9231 10.4778 16.9752 10.308 17.0682L5.86888 19.3871C5.32572 19.6464 4.67573 19.4452 4.3712 18.9258C4.25837 18.7136 4.21744 18.4704 4.25538 18.2322L5.14201 13.3032C5.20191 12.9449 5.0821 12.5806 4.8215 12.3284L1.1961 8.81848C0.765766 8.39713 0.757778 7.70556 1.17913 7.27421C1.18512 7.26821 1.19011 7.2632 1.1961 7.2582C1.36784 7.08806 1.58949 6.97597 1.82813 6.94094L6.8334 6.20433C7.19584 6.1583 7.51035 5.93211 7.6701 5.60384L9.84574 1.06312C10.0524 0.696818 10.4488 0.478639 10.8682 0.501658C10.8602 0.798902 10.8602 16.715 10.8602 16.9171Z" fill="#FFC907"/>
</svg>
