<svg width="21" height="20" viewBox="0 0 21 20" fill="none" xmlns="http://www.w3.org/2000/svg">
<path d="M16.787 12.32C16.528 12.571 16.409 12.934 16.468 13.29L17.357 18.21C17.432 18.627 17.256 19.049 16.907 19.29C16.565 19.54 16.11 19.57 15.737 19.37L11.308 17.06C11.154 16.978 10.983 16.934 10.808 16.929H10.537C10.443 16.943 10.351 16.973 10.267 17.019L5.83704 19.34C5.61804 19.45 5.37004 19.489 5.12704 19.45C4.53504 19.338 4.14004 18.774 4.23704 18.179L5.12704 13.259C5.18604 12.9 5.06704 12.535 4.80804 12.28L1.19704 8.78C0.89504 8.487 0.79004 8.047 0.92804 7.65C1.06204 7.254 1.40404 6.965 1.81704 6.9L6.78704 6.179C7.16504 6.14 7.49704 5.91 7.66704 5.57L9.85704 1.08C9.90904 0.98 9.97604 0.888 10.057 0.81L10.147 0.74C10.194 0.688 10.248 0.645 10.308 0.61L10.417 0.57L10.587 0.5H11.008C11.384 0.539 11.715 0.764 11.888 1.1L14.107 5.57C14.267 5.897 14.578 6.124 14.937 6.179L19.907 6.9C20.327 6.96 20.678 7.25 20.817 7.65C20.948 8.051 20.835 8.491 20.527 8.78L16.787 12.32Z" fill="#FFC907"/>
</svg>
