<svg width="72" height="72" viewBox="0 0 72 72" fill="none" xmlns="http://www.w3.org/2000/svg">
<g clip-path="url(#clip0_297_59322)">
<path d="M58.3489 6.928L54.9877 3.56678C54.8764 3.45522 54.7442 3.36671 54.5986 3.30632C54.453 3.24593 54.2969 3.21484 54.1393 3.21484C53.9817 3.21484 53.8257 3.24593 53.6801 3.30632C53.5345 3.36671 53.4023 3.45522 53.2909 3.56678L46.5684 10.2894C46.4568 10.4007 46.3683 10.5329 46.308 10.6785C46.2477 10.8241 46.2167 10.9802 46.2168 11.1378C46.2168 11.4557 46.3428 11.7606 46.5684 11.9861L49.9296 15.3474C50.1636 15.5814 50.4708 15.6989 50.778 15.6989C51.0851 15.6989 51.3924 15.5814 51.6264 15.3474L58.3489 8.62478C58.4605 8.51347 58.549 8.38122 58.6093 8.23564C58.6696 8.09005 58.7006 7.93398 58.7005 7.77639C58.7005 7.61881 58.6695 7.46277 58.6092 7.3172C58.5488 7.17163 58.4604 7.03937 58.3489 6.928ZM50.778 12.802L49.1135 11.1376L54.1393 6.11195L55.8038 7.77639L50.778 12.802Z" fill="url(#paint0_linear_297_59322)"/>
<path d="M61.7106 10.289L58.3494 6.92773C58.2381 6.81618 58.1059 6.7277 57.9603 6.66737C57.8147 6.60704 57.6586 6.57605 57.501 6.57617C57.3435 6.57615 57.1874 6.60718 57.0418 6.66751C56.8963 6.72783 56.764 6.81626 56.6526 6.92773L49.9301 13.6502C49.8185 13.7615 49.73 13.8937 49.6696 14.0393C49.6092 14.1849 49.5781 14.341 49.5781 14.4986C49.5781 14.6562 49.6092 14.8122 49.6696 14.9578C49.73 15.1034 49.8185 15.2356 49.9301 15.347L53.2913 18.7082C53.5157 18.9337 53.8217 19.0597 54.1397 19.0597C54.4576 19.0597 54.7625 18.9325 54.9881 18.7082L61.7106 11.9856C61.8222 11.8743 61.9107 11.7421 61.9711 11.5965C62.0315 11.4509 62.0626 11.2949 62.0626 11.1373C62.0626 10.9797 62.0315 10.8236 61.9711 10.6781C61.9107 10.5325 61.8222 10.4003 61.7106 10.289ZM54.1398 16.1631L52.4754 14.4987L57.501 9.47305L59.1655 11.1375L54.1398 16.1631Z" fill="url(#paint1_linear_297_59322)"/>
<path d="M65.0716 13.6507L61.7104 10.2894C61.599 10.1779 61.4668 10.0894 61.3212 10.029C61.1756 9.96858 61.0196 9.9375 60.862 9.9375C60.7044 9.9375 60.5483 9.96858 60.4027 10.029C60.2572 10.0894 60.1249 10.1779 60.0136 10.2894L53.291 17.012C53.0655 17.2365 52.9395 17.5425 52.9395 17.8604C52.9395 18.1784 53.0655 18.4832 53.291 18.7088L56.6522 22.07C56.8862 22.304 57.1935 22.4216 57.5006 22.4216C57.8077 22.4216 58.115 22.304 58.349 22.07L65.0716 15.3474C65.1831 15.2361 65.2715 15.1038 65.3318 14.9582C65.3922 14.8127 65.4232 14.6566 65.4232 14.499C65.4232 14.3415 65.3922 14.1854 65.3318 14.0399C65.2715 13.8943 65.1831 13.762 65.0716 13.6507ZM57.5006 19.5248L55.8362 17.8604L60.8618 12.8347L62.5263 14.4992L57.5006 19.5248Z" fill="url(#paint2_linear_297_59322)"/>
<path d="M68.4333 17.0117L65.0721 13.6504C64.9608 13.5388 64.8286 13.4504 64.683 13.39C64.5374 13.3297 64.3813 13.2987 64.2237 13.2988C64.0662 13.2988 63.9101 13.3298 63.7645 13.3902C63.619 13.4505 63.4867 13.5389 63.3753 13.6504L56.6528 20.3729C56.5412 20.4843 56.4527 20.6165 56.3923 20.7621C56.3319 20.9077 56.3009 21.0637 56.3009 21.2213C56.3009 21.3789 56.3319 21.535 56.3923 21.6806C56.4527 21.8262 56.5412 21.9584 56.6528 22.0697L60.014 25.4309C60.1253 25.5425 60.2575 25.631 60.4031 25.6913C60.5487 25.7516 60.7048 25.7826 60.8624 25.7825C61.02 25.7825 61.176 25.7515 61.3216 25.6911C61.4671 25.6308 61.5994 25.5424 61.7108 25.4309L68.4333 18.7084C68.5449 18.597 68.6334 18.4648 68.6937 18.3193C68.7541 18.1737 68.7852 18.0176 68.7852 17.8601C68.7852 17.7025 68.7541 17.5464 68.6937 17.4009C68.6334 17.2553 68.5449 17.1231 68.4333 17.0117ZM60.8624 22.8858L59.198 21.2213L64.2236 16.1957L65.888 17.8601L60.8624 22.8858ZM52.4671 24.573L47.4246 19.5305C46.9746 19.0805 46.1778 19.0805 45.7278 19.5305L34.8041 30.4554C33.9041 31.3554 33.4086 32.5519 33.4086 33.8251C33.4086 35.0983 33.9041 36.2947 34.8041 37.1947C35.7341 38.1235 36.9533 38.5879 38.1738 38.5879C39.3942 38.5879 40.6146 38.1235 41.5421 37.1935L52.4671 26.2697C52.5787 26.1584 52.6671 26.0262 52.7275 25.8806C52.7878 25.735 52.8188 25.5789 52.8187 25.4214C52.8187 25.2638 52.7877 25.1077 52.7273 24.9622C52.667 24.8166 52.5786 24.6843 52.4671 24.573ZM39.8454 35.4991C38.9237 36.4218 37.4237 36.4218 36.5009 35.4991C36.0546 35.0515 35.8085 34.4586 35.8085 33.8262C35.8085 33.1938 36.0544 32.6009 36.5009 32.1533L46.5762 22.078L49.9207 25.4236L39.8454 35.4991ZM36.502 47.2629L18.0147 28.7754C17.9034 28.6638 17.7711 28.5753 17.6255 28.5149C17.48 28.4545 17.3239 28.4235 17.1663 28.4235C17.0087 28.4235 16.8526 28.4545 16.7071 28.5149C16.5615 28.5753 16.4292 28.6638 16.3179 28.7754C16.2063 28.8867 16.1178 29.019 16.0574 29.1645C15.9971 29.3101 15.966 29.4662 15.966 29.6238C15.966 29.7814 15.9971 29.9374 16.0574 30.083C16.1178 30.2286 16.2063 30.3608 16.3179 30.4722L34.8041 48.9596C35.0381 49.1936 35.3454 49.3112 35.6525 49.3112C35.9596 49.3112 36.2669 49.1936 36.5022 48.9596C36.6137 48.8483 36.7022 48.716 36.7625 48.5705C36.8229 48.4249 36.854 48.2688 36.854 48.1112C36.854 47.9536 36.8229 47.7976 36.7625 47.652C36.7021 47.5064 36.6136 47.3742 36.502 47.2629ZM43.2233 53.9854L39.8621 50.6242C39.7508 50.5126 39.6185 50.4241 39.473 50.3638C39.3274 50.3034 39.1713 50.2723 39.0137 50.2723C38.8561 50.2723 38.7 50.3034 38.5545 50.3638C38.4089 50.4241 38.2766 50.5126 38.1653 50.6242C38.0538 50.7355 37.9653 50.8678 37.9049 51.0134C37.8445 51.1589 37.8134 51.315 37.8134 51.4726C37.8134 51.6302 37.8445 51.7863 37.9049 51.9318C37.9653 52.0774 38.0538 52.2097 38.1653 52.321L41.5265 55.6822C41.7605 55.9162 42.0678 56.0338 42.3749 56.0338C42.682 56.0338 42.9893 55.9162 43.2233 55.6822C43.3349 55.5709 43.4234 55.4386 43.4838 55.293C43.5442 55.1475 43.5752 54.9914 43.5752 54.8338C43.5752 54.6762 43.5442 54.5201 43.4838 54.3746C43.4234 54.229 43.3349 54.0967 43.2233 53.9854ZM22.2158 56.5054L15.4933 49.7829C15.382 49.6713 15.2497 49.5828 15.1041 49.5224C14.9586 49.462 14.8025 49.4309 14.6449 49.4309C14.4873 49.4309 14.3312 49.462 14.1857 49.5224C14.0401 49.5828 13.9078 49.6713 13.7965 49.7829L10.0237 53.5557C9.45853 54.1221 9.14648 54.8733 9.14648 55.6738C9.14648 56.4742 9.45726 57.2254 10.0237 57.7918L14.2081 61.9763C14.7913 62.5607 15.5581 62.8522 16.3249 62.8522C17.0918 62.8509 17.8597 62.5594 18.443 61.975L22.2158 58.2022C22.3274 58.0909 22.4159 57.9586 22.4762 57.813C22.5365 57.6675 22.5675 57.5114 22.5674 57.3538C22.5675 57.1962 22.5365 57.0402 22.4762 56.8946C22.4158 56.749 22.3274 56.6167 22.2158 56.5054ZM16.7474 60.2806C16.6357 60.3919 16.4844 60.4543 16.3268 60.4543C16.1691 60.4543 16.0179 60.3919 15.9062 60.2806L11.7217 56.0962C11.5693 55.9438 11.5465 55.7674 11.5465 55.675C11.5465 55.5826 11.5693 55.405 11.7205 55.2538L14.6449 52.3294L19.6718 57.3563L16.7474 60.2806Z" fill="url(#paint3_linear_297_59322)"/>
<path d="M15.4933 59.8679L12.1321 56.5067C11.6821 56.0567 10.8853 56.0567 10.4353 56.5067L0.351561 66.5903C0.240005 66.7016 0.151524 66.8339 0.0911946 66.9795C0.0308651 67.125 -0.000125581 67.2811 3.82451e-07 67.4387C3.82451e-07 67.7567 0.126 68.0615 0.351561 68.2871L3.71277 71.6483C3.94677 71.8823 4.25403 71.9999 4.56115 71.9999C4.86828 71.9999 5.17554 71.8823 5.40954 71.6483L15.4933 61.5645C15.6048 61.4532 15.6933 61.321 15.7537 61.1754C15.8141 61.0299 15.8452 60.8738 15.8452 60.7162C15.8452 60.5586 15.8141 60.4026 15.7537 60.257C15.6933 60.1115 15.6048 59.9792 15.4933 59.8679ZM4.56115 69.1031L2.89672 67.4387L11.2836 59.0519L12.948 60.7163L4.56115 69.1031ZM70.9532 19.5305L52.4694 1.04667C51.0738 -0.348889 48.8022 -0.348889 47.4077 1.04667L32.2839 16.1717C32.0583 16.3961 31.9323 16.7021 31.9323 17.0201C31.9323 17.338 32.0583 17.6429 32.2839 17.8684L40.6876 26.2709C41.1376 26.7209 41.9343 26.7209 42.3843 26.2709L46.5772 22.0769L49.9228 25.4225L45.7288 29.6155C45.6173 29.7268 45.5288 29.8591 45.4684 30.0047C45.4081 30.1502 45.3771 30.3063 45.3773 30.4639C45.3773 30.7818 45.5033 31.0867 45.7288 31.3123L54.1313 39.716C54.3557 39.9416 54.6617 40.0676 54.9797 40.0676C55.2976 40.0676 55.6025 39.9416 55.828 39.716L70.953 24.5923C72.3476 23.1966 72.3476 20.9262 70.9532 19.5305ZM69.2551 22.8953L54.9798 37.1708L48.2741 30.4639L52.467 26.271C52.5785 26.1597 52.667 26.0275 52.7273 25.8819C52.7877 25.7363 52.8187 25.5802 52.8185 25.4226C52.8186 25.2651 52.7875 25.109 52.7272 24.9635C52.6669 24.8179 52.5785 24.6856 52.467 24.5743L47.4245 19.5318C46.9745 19.0818 46.1777 19.0818 45.7277 19.5318L41.5348 23.7257L34.8292 17.0201L49.1045 2.74358C49.5641 2.28515 50.3129 2.28515 50.7726 2.74358L69.2553 21.2274C69.7147 21.6882 69.7147 22.4358 69.2551 22.8953Z" fill="url(#paint4_linear_297_59322)"/>
<path d="M57.5086 39.7006L47.4248 29.6169C47.3135 29.5053 47.1812 29.4168 47.0357 29.3564C46.8901 29.296 46.734 29.2649 46.5764 29.2649C46.4188 29.2649 46.2627 29.296 46.1172 29.3564C45.9716 29.4168 45.8394 29.5053 45.728 29.6169L39.8456 35.4993C38.9527 36.3922 37.3952 36.3922 36.5011 35.4993C36.0548 35.0517 35.8087 34.4589 35.8087 33.8265C35.8087 33.1941 36.0546 32.6012 36.5011 32.1536L42.3836 26.2711C42.4951 26.1598 42.5836 26.0276 42.644 25.882C42.7044 25.7364 42.7355 25.5804 42.7355 25.4228C42.7355 25.2651 42.7044 25.1091 42.644 24.9635C42.5836 24.8179 42.4951 24.6857 42.3836 24.5744L32.2998 14.4906C32.1885 14.379 32.0562 14.2905 31.9107 14.2301C31.7651 14.1698 31.609 14.1387 31.4514 14.1387C31.2938 14.1387 31.1377 14.1698 30.9922 14.2301C30.8466 14.2905 30.7143 14.379 30.603 14.4906L16.318 28.7757C16.1861 28.9074 16.0866 29.0681 16.0276 29.2449L10.1451 46.8923C10.075 47.1037 10.065 47.3305 10.1163 47.5473C10.1675 47.7641 10.2781 47.9624 10.4355 48.12L23.8805 61.5649C23.9917 61.6765 24.124 61.765 24.2696 61.8254C24.4152 61.8857 24.5713 61.9167 24.7289 61.9165C24.8577 61.9164 24.9858 61.8957 25.1081 61.8553L42.7555 55.9729C42.9321 55.9133 43.0927 55.8139 43.2248 55.6825L57.5086 41.3974C57.6201 41.2861 57.7086 41.1538 57.769 41.0083C57.8294 40.8627 57.8605 40.7066 57.8605 40.549C57.8605 40.3914 57.8294 40.2354 57.769 40.0898C57.7086 39.9442 57.6201 39.812 57.5086 39.7006ZM41.7271 53.7853L25.053 59.3438L12.6568 46.9476L18.2153 30.2709L31.4514 17.0348L39.8383 25.4216L34.8043 30.4557C33.9043 31.3557 33.4088 32.5521 33.4088 33.8253C33.4088 35.0986 33.9043 36.295 34.8043 37.195C36.6043 38.995 39.7423 38.9962 41.5423 37.195L46.5764 32.1609L54.9633 40.549L41.7271 53.7853Z" fill="url(#paint5_linear_297_59322)"/>
<path d="M33.1404 52.3057L19.6953 38.8607C19.584 38.7492 19.4518 38.6607 19.3062 38.6003C19.1606 38.5399 19.0046 38.5088 18.847 38.5088C18.6893 38.5088 18.5333 38.5399 18.3877 38.6003C18.2421 38.6607 18.1099 38.7492 17.9986 38.8607C17.887 38.9721 17.7985 39.1043 17.7381 39.2499C17.6777 39.3955 17.6466 39.5515 17.6466 39.7091C17.6466 39.8667 17.6777 40.0228 17.7381 40.1684C17.7985 40.3139 17.887 40.4462 17.9986 40.5575L31.4436 54.0025C31.5549 54.1141 31.6871 54.2026 31.8327 54.2629C31.9783 54.3233 32.1344 54.3542 32.292 54.3541C32.4496 54.3542 32.6056 54.3233 32.7512 54.2629C32.8968 54.2026 33.0291 54.1141 33.1404 54.0025C33.2519 53.8912 33.3404 53.7589 33.4007 53.6134C33.4611 53.4678 33.4922 53.3117 33.4922 53.1541C33.4922 52.9965 33.4611 52.8405 33.4007 52.6949C33.3404 52.5493 33.2519 52.4171 33.1404 52.3057ZM26.4178 52.3057L19.6952 45.5832C19.5839 45.4716 19.4516 45.3831 19.3061 45.3227C19.1605 45.2623 19.0044 45.2312 18.8468 45.2312C18.6892 45.2312 18.5331 45.2623 18.3876 45.3227C18.242 45.3831 18.1097 45.4716 17.9984 45.5832C17.8869 45.6945 17.7983 45.8267 17.738 45.9723C17.6776 46.1179 17.6465 46.2739 17.6465 46.4316C17.6465 46.5892 17.6776 46.7452 17.738 46.8908C17.7983 47.0364 17.8869 47.1686 17.9984 47.2799L24.721 54.0025C24.955 54.2365 25.2623 54.3541 25.5694 54.3541C25.8765 54.3541 26.1838 54.2365 26.4178 54.0025C26.5293 53.8912 26.6179 53.759 26.6782 53.6134C26.7386 53.4678 26.7697 53.3117 26.7697 53.1541C26.7697 52.9965 26.7386 52.8405 26.6782 52.6949C26.6179 52.5493 26.5293 52.4171 26.4178 52.3057Z" fill="url(#paint6_linear_297_59322)"/>
</g>
<defs>
<linearGradient id="paint0_linear_297_59322" x1="46.2168" y1="9.45688" x2="58.7005" y2="9.45688" gradientUnits="userSpaceOnUse">
<stop stop-color="#1BB0BE"/>
<stop offset="1" stop-color="#2958FF"/>
</linearGradient>
<linearGradient id="paint1_linear_297_59322" x1="49.5781" y1="12.818" x2="62.0626" y2="12.818" gradientUnits="userSpaceOnUse">
<stop stop-color="#1BB0BE"/>
<stop offset="1" stop-color="#2958FF"/>
</linearGradient>
<linearGradient id="paint2_linear_297_59322" x1="52.9395" y1="16.1795" x2="65.4232" y2="16.1795" gradientUnits="userSpaceOnUse">
<stop stop-color="#1BB0BE"/>
<stop offset="1" stop-color="#2958FF"/>
</linearGradient>
<linearGradient id="paint3_linear_297_59322" x1="9.14648" y1="38.0755" x2="68.7852" y2="38.0755" gradientUnits="userSpaceOnUse">
<stop stop-color="#1BB0BE"/>
<stop offset="1" stop-color="#2958FF"/>
</linearGradient>
<linearGradient id="paint4_linear_297_59322" x1="2.68217e-07" y1="35.9999" x2="71.999" y2="35.9999" gradientUnits="userSpaceOnUse">
<stop stop-color="#1BB0BE"/>
<stop offset="1" stop-color="#2958FF"/>
</linearGradient>
<linearGradient id="paint5_linear_297_59322" x1="10.084" y1="38.0276" x2="57.8605" y2="38.0276" gradientUnits="userSpaceOnUse">
<stop stop-color="#1BB0BE"/>
<stop offset="1" stop-color="#2958FF"/>
</linearGradient>
<linearGradient id="paint6_linear_297_59322" x1="17.6465" y1="46.4314" x2="33.4922" y2="46.4314" gradientUnits="userSpaceOnUse">
<stop stop-color="#1BB0BE"/>
<stop offset="1" stop-color="#2958FF"/>
</linearGradient>
<clipPath id="clip0_297_59322">
<rect width="72" height="72" fill="white"/>
</clipPath>
</defs>
</svg>
