<svg width="18" height="19" viewBox="0 0 18 19" fill="none" xmlns="http://www.w3.org/2000/svg">
<path d="M15.9599 14.552C15.5809 13.6543 15.031 12.8389 14.3407 12.1513C13.6525 11.4616 12.8373 10.9118 11.94 10.5321C11.932 10.5281 11.9239 10.5261 11.9159 10.522C13.1675 9.61803 13.9811 8.14548 13.9811 6.4841C13.9811 3.73186 11.7512 1.50195 8.99893 1.50195C6.2467 1.50195 4.01679 3.73186 4.01679 6.4841C4.01679 8.14548 4.83041 9.61803 6.08197 10.5241C6.07393 10.5281 6.0659 10.5301 6.05786 10.5341C5.15786 10.9138 4.35027 11.4582 3.65719 12.1533C2.96755 12.8415 2.41769 13.6567 2.038 14.554C1.66498 15.4324 1.46381 16.3741 1.44536 17.3283C1.44483 17.3497 1.44859 17.3711 1.45642 17.391C1.46426 17.411 1.47601 17.4292 1.49099 17.4445C1.50597 17.4599 1.52387 17.4721 1.54363 17.4804C1.5634 17.4887 1.58463 17.493 1.60608 17.493H2.81143C2.89983 17.493 2.97014 17.4227 2.97215 17.3363C3.01233 15.7854 3.63509 14.333 4.73599 13.2321C5.87505 12.093 7.38777 11.4662 8.99893 11.4662C10.6101 11.4662 12.1228 12.093 13.2619 13.2321C14.3628 14.333 14.9855 15.7854 15.0257 17.3363C15.0277 17.4247 15.098 17.493 15.1864 17.493H16.3918C16.4132 17.493 16.4345 17.4887 16.4542 17.4804C16.474 17.4721 16.4919 17.4599 16.5069 17.4445C16.5219 17.4292 16.5336 17.411 16.5414 17.391C16.5493 17.3711 16.553 17.3497 16.5525 17.3283C16.5324 16.368 16.3335 15.4339 15.9599 14.552ZM8.99893 9.93946C8.07684 9.93946 7.20898 9.57986 6.55608 8.92695C5.90317 8.27405 5.54358 7.4062 5.54358 6.4841C5.54358 5.562 5.90317 4.69414 6.55608 4.04124C7.20898 3.38834 8.07684 3.02874 8.99893 3.02874C9.92103 3.02874 10.7889 3.38834 11.4418 4.04124C12.0947 4.69414 12.4543 5.562 12.4543 6.4841C12.4543 7.4062 12.0947 8.27405 11.4418 8.92695C10.7889 9.57986 9.92103 9.93946 8.99893 9.93946Z" fill="#EAEAEA" fill-opacity="0.75"/>
</svg>
